<?xml version="1.0" encoding="UTF-8" standalone="no"?>
<svg
   xmlns:dc="http://purl.org/dc/elements/1.1/"
   xmlns:cc="http://creativecommons.org/ns#"
   xmlns:rdf="http://www.w3.org/1999/02/22-rdf-syntax-ns#"
   xmlns:svg="http://www.w3.org/2000/svg"
   xmlns="http://www.w3.org/2000/svg"
   xmlns:sodipodi="http://sodipodi.sourceforge.net/DTD/sodipodi-0.dtd"
   xmlns:inkscape="http://www.inkscape.org/namespaces/inkscape"
   version="1.1"
   id="svg2"
   xml:space="preserve"
   width="1122.52"
   height="755.90668"
   viewBox="0 0 1122.52 755.90668"
   sodipodi:docname="919.eps"><metadata
     id="metadata8"><rdf:RDF><cc:Work
         rdf:about=""><dc:format>image/svg+xml</dc:format><dc:type
           rdf:resource="http://purl.org/dc/dcmitype/StillImage" /></cc:Work></rdf:RDF></metadata><defs
     id="defs6"><clipPath
       clipPathUnits="userSpaceOnUse"
       id="clipPath64"><path
         d="m 4749.1,2914.09 c 122.57,65.36 229.22,179.65 245.07,299.78 28.2,213.9 -108.82,374.85 -283.77,449.05 -208.96,88.65 -69.53,25.16 -868.81,235.62 -384.17,101.15 -408.76,195.45 -400.14,263.42 -103.79,-67.97 -135.67,-438.24 44.24,-549.59 184.94,-114.45 553.42,-138.29 1016.48,-269.86 407.1,-115.69 346.86,-328.86 246.93,-428.42 z"
         id="path62" /></clipPath><linearGradient
       x1="0"
       y1="0"
       x2="1"
       y2="0"
       gradientUnits="userSpaceOnUse"
       gradientTransform="matrix(-2423.08,249.435,249.435,2423.08,5510.07,3392.39)"
       spreadMethod="pad"
       id="linearGradient76"><stop
         style="stop-opacity:1;stop-color:#4ce5ae"
         offset="0"
         id="stop66" /><stop
         style="stop-opacity:1;stop-color:#4ce5ae"
         offset="0.0666667"
         id="stop68" /><stop
         style="stop-opacity:1;stop-color:#1caabc"
         offset="0.684848"
         id="stop70" /><stop
         style="stop-opacity:1;stop-color:#076266"
         offset="0.963636"
         id="stop72" /><stop
         style="stop-opacity:1;stop-color:#076266"
         offset="1"
         id="stop74" /></linearGradient><clipPath
       clipPathUnits="userSpaceOnUse"
       id="clipPath86"><path
         d="m 4831.37,2851.26 c -35.36,20.98 -73.91,38.26 -115.04,51.19 -579.15,132.81 -629.96,130 -822.13,176.71 -523.66,127.34 -460.73,233.41 -474.1,275.75 -96.54,-102.95 -98.18,-424.96 80.8,-521.55 217.06,-117.14 599.01,-155.4 1083.02,-275.95 157.42,-39.2 249.65,-85.98 318.54,-141.39 76.47,-61.52 97.44,-151.43 38.84,-226.85 -51.28,-65.98 -188.3,-55.21 -340.2,-34.02 -269.4,37.56 -610.99,115.8 -706.9,142.39 -430.95,119.46 -460.73,233.41 -474.1,275.73 -96.54,-102.94 -98.18,-424.93 80.8,-521.54 141.9,-76.58 276.6,-120.59 568.53,-138.17 213.83,-12.85 602.24,-24.9 792.48,172.76 18.52,19.21 166.48,131.33 197.08,324.47 28.47,179.51 -70.08,346.98 -227.62,440.47 z"
         id="path84" /></clipPath><linearGradient
       x1="0"
       y1="0"
       x2="1"
       y2="0"
       gradientUnits="userSpaceOnUse"
       gradientTransform="matrix(1708.86,0,0,-1708.86,3355.01,2631.12)"
       spreadMethod="pad"
       id="linearGradient98"><stop
         style="stop-opacity:1;stop-color:#076266"
         offset="0"
         id="stop88" /><stop
         style="stop-opacity:1;stop-color:#076266"
         offset="0.0363636"
         id="stop90" /><stop
         style="stop-opacity:1;stop-color:#1caabc"
         offset="0.315152"
         id="stop92" /><stop
         style="stop-opacity:1;stop-color:#4ce5ae"
         offset="0.933333"
         id="stop94" /><stop
         style="stop-opacity:1;stop-color:#4ce5ae"
         offset="1"
         id="stop96" /></linearGradient><clipPath
       clipPathUnits="userSpaceOnUse"
       id="clipPath108"><path
         d="m 4375.52,2978.37 c -0.05,-0.01 -0.08,-0.02 -0.14,-0.03 173.44,-37.48 340.95,-75.89 340.95,-75.89 2.85,-0.89 5.69,-1.87 8.52,-2.82 8.26,4.64 16.4,9.43 24.28,14.49 99.91,99.57 160.1,312.71 -246.96,428.39 -28.1,7.99 -55.84,15.55 -83.23,22.8 114.12,-46.19 275.25,-296.47 -43.42,-386.94 z"
         id="path106" /></clipPath><linearGradient
       x1="0"
       y1="0"
       x2="1"
       y2="0"
       gradientUnits="userSpaceOnUse"
       gradientTransform="matrix(-296.415,-375.013,-375.013,296.415,4624.36,3189.16)"
       spreadMethod="pad"
       id="linearGradient120"><stop
         style="stop-opacity:1;stop-color:#076266"
         offset="0"
         id="stop110" /><stop
         style="stop-opacity:1;stop-color:#076266"
         offset="0.0363636"
         id="stop112" /><stop
         style="stop-opacity:1;stop-color:#1caabc"
         offset="0.315152"
         id="stop114" /><stop
         style="stop-opacity:1;stop-color:#4ce5ae"
         offset="0.933333"
         id="stop116" /><stop
         style="stop-opacity:1;stop-color:#4ce5ae"
         offset="1"
         id="stop118" /></linearGradient><clipPath
       clipPathUnits="userSpaceOnUse"
       id="clipPath130"><path
         d="m 4482.38,2196.65 c -7.74,-6.22 -15.77,-11.94 -24.06,-17.28 48.65,-9.5 96.77,-17.8 142.78,-24.22 151.9,-21.19 288.92,-31.96 340.2,34.02 58.6,75.42 37.63,165.33 -38.84,226.85 -126.57,101.8 -290.53,136.21 -457.21,174.57 121.83,-55.41 224.08,-243.19 37.13,-393.94 z"
         id="path128" /></clipPath><linearGradient
       x1="0"
       y1="0"
       x2="1"
       y2="0"
       gradientUnits="userSpaceOnUse"
       gradientTransform="matrix(-178.102,-603.326,-603.326,178.102,4711.77,2431.83)"
       spreadMethod="pad"
       id="linearGradient142"><stop
         style="stop-opacity:1;stop-color:#076266"
         offset="0"
         id="stop132" /><stop
         style="stop-opacity:1;stop-color:#076266"
         offset="0.0363636"
         id="stop134" /><stop
         style="stop-opacity:1;stop-color:#1caabc"
         offset="0.315152"
         id="stop136" /><stop
         style="stop-opacity:1;stop-color:#4ce5ae"
         offset="0.933333"
         id="stop138" /><stop
         style="stop-opacity:1;stop-color:#4ce5ae"
         offset="1"
         id="stop140" /></linearGradient></defs><sodipodi:namedview
     pagecolor="#ffffff"
     bordercolor="#666666"
     borderopacity="1"
     objecttolerance="10"
     gridtolerance="10"
     guidetolerance="10"
     inkscape:pageopacity="0"
     inkscape:pageshadow="2"
     inkscape:window-width="640"
     inkscape:window-height="480"
     id="namedview4" /><g
     id="g10"
     inkscape:groupmode="layer"
     inkscape:label="ink_ext_XXXXXX"
     transform="matrix(1.3333333,0,0,-1.3333333,0,755.90667)"><g
       id="g12"
       transform="scale(0.1)"><path
         d="M 8418.9,0 H 0 V 5669.29 H 8418.9 V 0"
         style="fill:#383c41;fill-opacity:1;fill-rule:nonzero;stroke:none"
         id="path14" /><path
         d="m 3150.13,1470.04 v -54.57 h 144.95 c 19.89,1.13 29.84,6.83 29.84,17.05 v 19.62 c 0,10.23 -10.8,16.19 -32.4,17.9 z m 0,120.23 v -53.72 h 145.8 c 20.46,1.13 30.7,6.53 30.7,16.2 v 20.47 c 0,5.67 -4.84,10.5 -14.5,14.49 -6.26,1.71 -11.66,2.56 -16.2,2.56 z m -132.16,65.65 h 317.18 c 60.82,0 98.91,-11.08 114.26,-33.25 5.12,-7.39 7.67,-19.34 7.67,-35.81 v -24.73 c 0,-29.57 -17.62,-49.18 -52.87,-58.84 36.38,-7.96 54.57,-26.15 54.57,-54.57 v -30.69 c 0,-46.04 -43.2,-69.06 -129.6,-69.06 h -311.21 v 306.95"
         style="fill:#f5f5f5;fill-opacity:1;fill-rule:nonzero;stroke:none"
         id="path16" /><path
         d="m 3520.17,1384.78 c -1.15,12.5 8.23,22.17 28.14,28.99 14.77,5.11 29.55,7.67 44.33,7.67 20.47,0 37.65,-3.56 51.58,-10.66 13.93,-7.11 20.9,-15.49 20.9,-25.15 0,-10.23 -7.12,-18.9 -21.32,-26.01 -14.22,-7.11 -31.27,-10.65 -51.16,-10.65 -14.78,0 -29.28,2.56 -43.48,7.67 -18.2,6.25 -27.86,15.63 -28.99,28.14"
         style="fill:#f5f5f5;fill-opacity:1;fill-rule:nonzero;stroke:none"
         id="path18" /><path
         d="m 3727.36,1424 v 231.92 h 132.16 v -226.81 c 0,-9.1 11.08,-13.64 33.25,-13.64 h 233.62 l -0.85,-66.5 h -244.71 c -7.96,0 -15.35,0.28 -22.17,0.85 -46.61,1.71 -80.15,8.38 -100.61,20.04 -20.47,11.64 -30.69,29.69 -30.69,54.14"
         style="fill:#f5f5f5;fill-opacity:1;fill-rule:nonzero;stroke:none"
         id="path20" /><path
         d="m 4181.82,1348.97 v 306.95 h 132.14 v -306.95 h -132.14"
         style="fill:#f5f5f5;fill-opacity:1;fill-rule:nonzero;stroke:none"
         id="path22" /><path
         d="m 4344.67,1655.92 h 139.82 l 131.31,-218.28 134.71,218.28 h 138.98 l -180.76,-272.85 c -16.48,-25.58 -46.89,-38.37 -91.23,-38.37 -44.9,0 -75.61,12.79 -92.09,38.37 l -180.74,272.85"
         style="fill:#f5f5f5;fill-opacity:1;fill-rule:nonzero;stroke:none"
         id="path24" /><path
         d="m 4920.18,1412.91 v 176.51 c 0,3.96 0.86,8.52 2.55,13.64 11.37,35.23 53.15,52.86 125.34,52.86 h 272.85 v -65.65 h -237.89 c -1.7,-0.58 -4.55,-1.15 -8.52,-1.71 -14.78,-2.85 -22.17,-8.82 -22.17,-17.9 v -34.11 h 268.58 v -66.51 h -268.58 v -34.1 c 0,-12.51 11.35,-19.34 34.11,-20.47 h 234.47 v -66.5 h -254.08 c -97.78,0 -146.66,21.32 -146.66,63.94"
         style="fill:#f5f5f5;fill-opacity:1;fill-rule:nonzero;stroke:none"
         id="path26" /><path
         d="m 3432.76,1167.45 c -6.3,5.95 -15.11,8.92 -26.46,8.92 -8.1,0 -15.21,-1.72 -21.33,-5.14 -6.12,-3.41 -11.2,-7.92 -15.25,-13.49 -4.06,-5.59 -7.11,-11.93 -9.18,-19.04 -2.07,-7.12 -3.11,-14.35 -3.11,-21.73 0,-7.39 1.04,-14.63 3.11,-21.73 2.07,-7.12 5.12,-13.47 9.18,-19.05 4.05,-5.57 9.13,-10.07 15.25,-13.49 6.12,-3.42 13.23,-5.13 21.33,-5.13 5.22,0 10.17,0.99 14.85,2.97 4.68,1.97 8.82,4.73 12.42,8.23 3.6,3.51 6.57,7.7 8.91,12.56 2.34,4.85 3.78,10.17 4.33,15.93 h 17 c -2.34,-16.93 -8.55,-30.11 -18.62,-39.56 -10.09,-9.45 -23.05,-14.17 -38.89,-14.17 -10.62,0 -20.02,1.93 -28.21,5.8 -8.2,3.88 -15.08,9.14 -20.66,15.8 -5.57,6.65 -9.81,14.44 -12.68,23.35 -2.88,8.92 -4.33,18.41 -4.33,28.49 0,10.07 1.45,19.58 4.33,28.48 2.87,8.91 7.11,16.69 12.68,23.36 5.58,6.65 12.46,11.96 20.66,15.93 8.19,3.95 17.59,5.94 28.21,5.94 14.94,0 27.59,-3.97 37.94,-11.88 10.35,-7.93 16.51,-19.89 18.49,-35.92 h -17.01 c -2.34,10.44 -6.66,18.64 -12.96,24.57"
         style="fill:#95a1a3;fill-opacity:1;fill-rule:nonzero;stroke:none"
         id="path28" /><path
         d="m 3503.23,1186.62 v -32.66 h 0.54 c 4.32,11.34 11.02,20.07 20.12,26.19 9.08,6.11 19.93,8.91 32.53,8.37 v -17.01 c -7.74,0.36 -14.76,-0.68 -21.06,-3.11 -6.31,-2.43 -11.75,-5.9 -16.34,-10.39 -4.59,-4.5 -8.14,-9.85 -10.66,-16.06 -2.52,-6.21 -3.78,-13.01 -3.78,-20.39 v -74.25 h -17.01 v 139.31 h 15.66"
         style="fill:#95a1a3;fill-opacity:1;fill-rule:nonzero;stroke:none"
         id="path30" /><path
         d="m 3664.55,1145.32 c -2.07,5.93 -4.99,11.21 -8.77,15.8 -3.78,4.59 -8.37,8.27 -13.77,11.06 -5.4,2.79 -11.52,4.19 -18.36,4.19 -7.02,0 -13.23,-1.4 -18.63,-4.19 -5.4,-2.79 -9.99,-6.47 -13.77,-11.06 -3.78,-4.59 -6.8,-9.91 -9.04,-15.94 -2.26,-6.03 -3.74,-12.2 -4.46,-18.49 h 90.18 c -0.19,6.48 -1.31,12.69 -3.38,18.63 z m -84.24,-51.98 c 1.71,-6.57 4.46,-12.47 8.24,-17.68 3.78,-5.23 8.55,-9.54 14.31,-12.96 5.76,-3.42 12.69,-5.13 20.79,-5.13 12.42,0 22.14,3.23 29.16,9.72 7.02,6.48 11.88,15.12 14.58,25.92 h 17.01 c -3.6,-15.84 -10.22,-28.08 -19.85,-36.72 -9.63,-8.65 -23.26,-12.96 -40.9,-12.96 -10.98,0 -20.48,1.93 -28.48,5.8 -8.01,3.88 -14.54,9.18 -19.58,15.94 -5.04,6.74 -8.77,14.58 -11.21,23.48 -2.43,8.91 -3.64,18.31 -3.64,28.22 0,9.18 1.21,18.18 3.64,27 2.44,8.82 6.17,16.69 11.21,23.62 5.04,6.93 11.57,12.51 19.58,16.74 8,4.23 17.5,6.35 28.48,6.35 11.15,0 20.7,-2.26 28.62,-6.75 7.92,-4.5 14.35,-10.4 19.3,-17.69 4.95,-7.29 8.51,-15.66 10.67,-25.1 2.16,-9.46 3.06,-19.05 2.7,-28.76 h -107.19 c 0,-6.13 0.85,-12.47 2.56,-19.04"
         style="fill:#95a1a3;fill-opacity:1;fill-rule:nonzero;stroke:none"
         id="path32" /><path
         d="m 3796.46,1123.45 c -1.09,-1.98 -3.16,-3.43 -6.22,-4.33 -3.06,-0.89 -5.76,-1.52 -8.1,-1.88 -7.2,-1.26 -14.62,-2.39 -22.28,-3.38 -7.64,-0.99 -14.62,-2.47 -20.91,-4.45 -6.31,-1.99 -11.48,-4.82 -15.53,-8.51 -4.05,-3.69 -6.08,-8.95 -6.08,-15.79 0,-4.33 0.85,-8.14 2.56,-11.47 1.71,-3.34 4.01,-6.22 6.89,-8.65 2.88,-2.43 6.21,-4.27 9.99,-5.53 3.79,-1.26 7.65,-1.89 11.61,-1.89 6.48,0 12.69,0.99 18.63,2.97 5.94,1.97 11.11,4.85 15.53,8.63 4.4,3.79 7.92,8.38 10.53,13.78 2.6,5.39 3.91,11.52 3.91,18.36 v 22.14 z m -85.05,41.58 c 2.87,5.94 6.78,10.79 11.73,14.58 4.96,3.78 10.76,6.56 17.43,8.37 6.65,1.8 14.03,2.7 22.14,2.7 6.11,0 12.23,-0.59 18.35,-1.76 6.12,-1.17 11.62,-3.37 16.47,-6.61 4.86,-3.24 8.82,-7.79 11.88,-13.64 3.06,-5.84 4.59,-13.45 4.59,-22.81 v -73.98 c 0,-6.85 3.33,-10.27 9.99,-10.27 1.98,0 3.78,0.37 5.4,1.09 v -14.31 c -1.98,-0.37 -3.74,-0.63 -5.26,-0.81 -1.53,-0.18 -3.48,-0.27 -5.81,-0.27 -4.32,0 -7.78,0.58 -10.39,1.76 -2.62,1.16 -4.64,2.83 -6.07,4.99 -1.45,2.15 -2.4,4.72 -2.85,7.69 -0.45,2.97 -0.67,6.25 -0.67,9.85 h -0.54 c -3.06,-4.5 -6.17,-8.5 -9.31,-12.01 -3.16,-3.5 -6.66,-6.43 -10.53,-8.78 -3.88,-2.33 -8.28,-4.13 -13.23,-5.4 -4.95,-1.25 -10.85,-1.88 -17.69,-1.88 -6.47,0 -12.56,0.77 -18.22,2.29 -5.68,1.53 -10.63,3.96 -14.86,7.29 -4.22,3.33 -7.55,7.57 -9.99,12.69 -2.43,5.13 -3.64,11.2 -3.64,18.23 0,9.71 2.16,17.32 6.49,22.81 4.31,5.49 10.03,9.68 17.14,12.56 7.1,2.88 15.11,4.9 24.03,6.07 8.9,1.17 17.95,2.3 27.13,3.38 3.6,0.35 6.76,0.81 9.45,1.35 2.71,0.54 4.95,1.48 6.75,2.83 1.8,1.35 3.19,3.19 4.19,5.54 0.98,2.33 1.48,5.4 1.48,9.18 0,5.76 -0.95,10.49 -2.83,14.18 -1.89,3.68 -4.5,6.61 -7.83,8.77 -3.33,2.15 -7.21,3.64 -11.61,4.45 -4.42,0.81 -9.14,1.22 -14.18,1.22 -10.79,0 -19.62,-2.57 -26.46,-7.7 -6.84,-5.13 -10.44,-13.36 -10.8,-24.7 h -17.01 c 0.55,8.09 2.25,15.11 5.14,21.06"
         style="fill:#95a1a3;fill-opacity:1;fill-rule:nonzero;stroke:none"
         id="path34" /><path
         d="m 3903.37,1186.62 v -14.3 h -28.35 v -93.96 c 0,-5.58 0.76,-9.95 2.29,-13.09 1.53,-3.16 5.36,-4.92 11.48,-5.28 4.86,0 9.72,0.28 14.58,0.81 v -14.3 c -2.52,0 -5.04,-0.09 -7.56,-0.28 -2.53,-0.17 -5.04,-0.26 -7.56,-0.26 -11.35,0 -19.27,2.2 -23.76,6.61 -4.5,4.42 -6.66,12.56 -6.48,24.43 v 95.32 h -24.3 v 14.3 h 24.3 v 41.86 h 17.01 v -41.86 h 28.35"
         style="fill:#95a1a3;fill-opacity:1;fill-rule:nonzero;stroke:none"
         id="path36" /><path
         d="m 3945.21,1186.62 v -139.31 h -17.01 v 139.31 z m 0,53.47 v -27.27 h -17.01 v 27.27 h 17.01"
         style="fill:#95a1a3;fill-opacity:1;fill-rule:nonzero;stroke:none"
         id="path38" /><path
         d="m 3981.12,1186.62 43.74,-122.3 h 0.55 l 43.19,122.3 h 17.55 l -52.11,-139.31 h -18.08 l -53.73,139.31 h 18.89"
         style="fill:#95a1a3;fill-opacity:1;fill-rule:nonzero;stroke:none"
         id="path40" /><path
         d="m 4199.69,1145.32 c -2.07,5.93 -4.98,11.21 -8.77,15.8 -3.78,4.59 -8.37,8.27 -13.77,11.06 -5.4,2.79 -11.52,4.19 -18.36,4.19 -7.02,0 -13.23,-1.4 -18.63,-4.19 -5.4,-2.79 -9.99,-6.47 -13.77,-11.06 -3.78,-4.59 -6.8,-9.91 -9.05,-15.94 -2.25,-6.03 -3.74,-12.2 -4.45,-18.49 h 90.18 c -0.18,6.48 -1.31,12.69 -3.38,18.63 z m -84.24,-51.98 c 1.71,-6.57 4.45,-12.47 8.24,-17.68 3.78,-5.23 8.55,-9.54 14.31,-12.96 5.76,-3.42 12.68,-5.13 20.79,-5.13 12.42,0 22.14,3.23 29.16,9.72 7.01,6.48 11.87,15.12 14.57,25.92 h 17.01 c -3.59,-15.84 -10.21,-28.08 -19.84,-36.72 -9.63,-8.65 -23.26,-12.96 -40.9,-12.96 -10.99,0 -20.48,1.93 -28.49,5.8 -8.01,3.88 -14.54,9.18 -19.58,15.94 -5.04,6.74 -8.77,14.58 -11.2,23.48 -2.43,8.91 -3.64,18.31 -3.64,28.22 0,9.18 1.21,18.18 3.64,27 2.43,8.82 6.16,16.69 11.2,23.62 5.04,6.93 11.57,12.51 19.58,16.74 8.01,4.23 17.5,6.35 28.49,6.35 11.15,0 20.69,-2.26 28.61,-6.75 7.93,-4.5 14.36,-10.4 19.32,-17.69 4.94,-7.29 8.49,-15.66 10.66,-25.1 2.15,-9.46 3.05,-19.05 2.7,-28.76 h -107.19 c 0,-6.13 0.85,-12.47 2.56,-19.04"
         style="fill:#95a1a3;fill-opacity:1;fill-rule:nonzero;stroke:none"
         id="path42" /><path
         d="m 4335.37,1240.09 v -192.78 h -17.01 v 192.78 h 17.01"
         style="fill:#95a1a3;fill-opacity:1;fill-rule:nonzero;stroke:none"
         id="path44" /><path
         d="m 4464.84,1145.32 c -2.07,5.93 -5,11.21 -8.79,15.8 -3.76,4.59 -8.35,8.27 -13.76,11.06 -5.4,2.79 -11.53,4.19 -18.36,4.19 -7.02,0 -13.23,-1.4 -18.64,-4.19 -5.39,-2.79 -9.98,-6.47 -13.77,-11.06 -3.77,-4.59 -6.79,-9.91 -9.04,-15.94 -2.25,-6.03 -3.73,-12.2 -4.45,-18.49 h 90.17 c -0.17,6.48 -1.31,12.69 -3.36,18.63 z m -84.23,-51.98 c 1.69,-6.57 4.45,-12.47 8.22,-17.68 3.79,-5.23 8.55,-9.54 14.31,-12.96 5.77,-3.42 12.7,-5.13 20.79,-5.13 12.42,0 22.14,3.23 29.16,9.72 7.03,6.48 11.89,15.12 14.59,25.92 h 17.01 c -3.62,-15.84 -10.22,-28.08 -19.85,-36.72 -9.64,-8.65 -23.28,-12.96 -40.91,-12.96 -10.98,0 -20.47,1.93 -28.48,5.8 -8.01,3.88 -14.55,9.18 -19.57,15.94 -5.06,6.74 -8.79,14.58 -11.21,23.48 -2.44,8.91 -3.65,18.31 -3.65,28.22 0,9.18 1.21,18.18 3.65,27 2.42,8.82 6.15,16.69 11.21,23.62 5.02,6.93 11.56,12.51 19.57,16.74 8.01,4.23 17.5,6.35 28.48,6.35 11.17,0 20.7,-2.26 28.63,-6.75 7.91,-4.5 14.33,-10.4 19.3,-17.69 4.94,-7.29 8.49,-15.66 10.66,-25.1 2.17,-9.46 3.07,-19.05 2.69,-28.76 h -107.18 c 0,-6.13 0.86,-12.47 2.58,-19.04"
         style="fill:#95a1a3;fill-opacity:1;fill-rule:nonzero;stroke:none"
         id="path46" /><path
         d="m 4563.52,1186.62 v -14.3 h -28.34 v -93.96 c 0,-5.58 0.76,-9.95 2.28,-13.09 1.52,-3.16 5.35,-4.92 11.49,-5.28 4.84,0 9.7,0.28 14.57,0.81 v -14.3 c -2.52,0 -5.04,-0.09 -7.56,-0.28 -2.52,-0.17 -5.04,-0.26 -7.56,-0.26 -11.35,0 -19.26,2.2 -23.77,6.61 -4.49,4.42 -6.66,12.56 -6.47,24.43 v 95.32 h -24.29 v 14.3 h 24.29 v 41.86 h 17.02 v -41.86 h 28.34"
         style="fill:#95a1a3;fill-opacity:1;fill-rule:nonzero;stroke:none"
         id="path48" /><path
         d="m 4643.44,1186.62 v -14.3 h -28.36 v -93.96 c 0,-5.58 0.76,-9.95 2.3,-13.09 1.53,-3.16 5.35,-4.92 11.47,-5.28 4.86,0 9.72,0.28 14.59,0.81 v -14.3 c -2.54,0 -5.06,-0.09 -7.56,-0.28 -2.54,-0.17 -5.06,-0.26 -7.58,-0.26 -11.33,0 -19.26,2.2 -23.75,6.61 -4.51,4.42 -6.66,12.56 -6.48,24.43 v 95.32 h -24.3 v 14.3 h 24.3 v 41.86 h 17.01 v -41.86 h 28.36"
         style="fill:#95a1a3;fill-opacity:1;fill-rule:nonzero;stroke:none"
         id="path50" /><path
         d="m 4764.8,1145.32 c -2.07,5.93 -5,11.21 -8.78,15.8 -3.77,4.59 -8.36,8.27 -13.77,11.06 -5.39,2.79 -11.53,4.19 -18.36,4.19 -7.01,0 -13.23,-1.4 -18.64,-4.19 -5.39,-2.79 -9.98,-6.47 -13.77,-11.06 -3.77,-4.59 -6.79,-9.91 -9.04,-15.94 -2.24,-6.03 -3.73,-12.2 -4.45,-18.49 h 90.17 c -0.17,6.48 -1.3,12.69 -3.36,18.63 z m -84.23,-51.98 c 1.7,-6.57 4.45,-12.47 8.22,-17.68 3.79,-5.23 8.55,-9.54 14.32,-12.96 5.76,-3.42 12.69,-5.13 20.78,-5.13 12.42,0 22.15,3.23 29.16,9.72 7.03,6.48 11.89,15.12 14.59,25.92 h 17.01 c -3.61,-15.84 -10.22,-28.08 -19.85,-36.72 -9.64,-8.65 -23.28,-12.96 -40.91,-12.96 -10.98,0 -20.47,1.93 -28.48,5.8 -8.01,3.88 -14.55,9.18 -19.57,15.94 -5.06,6.74 -8.79,14.58 -11.21,23.48 -2.44,8.91 -3.65,18.31 -3.65,28.22 0,9.18 1.21,18.18 3.65,27 2.42,8.82 6.15,16.69 11.21,23.62 5.02,6.93 11.56,12.51 19.57,16.74 8.01,4.23 17.5,6.35 28.48,6.35 11.17,0 20.7,-2.26 28.63,-6.75 7.91,-4.5 14.34,-10.4 19.3,-17.69 4.94,-7.29 8.49,-15.66 10.66,-25.1 2.17,-9.46 3.07,-19.05 2.7,-28.76 h -107.19 c 0,-6.13 0.86,-12.47 2.58,-19.04"
         style="fill:#95a1a3;fill-opacity:1;fill-rule:nonzero;stroke:none"
         id="path52" /><path
         d="m 4823.79,1186.62 v -32.66 h 0.55 c 4.31,11.34 11.01,20.07 20.11,26.19 9.09,6.11 19.93,8.91 32.52,8.37 v -17.01 c -7.73,0.36 -14.74,-0.68 -21.05,-3.11 -6.31,-2.43 -11.74,-5.9 -16.33,-10.39 -4.59,-4.5 -8.14,-9.85 -10.66,-16.06 -2.54,-6.21 -3.79,-13.01 -3.79,-20.39 v -74.25 h -17.01 v 139.31 h 15.66"
         style="fill:#95a1a3;fill-opacity:1;fill-rule:nonzero;stroke:none"
         id="path54" /><path
         d="m 4973.36,1159.5 c -1.97,3.86 -4.63,7.06 -7.95,9.58 -3.34,2.51 -7.17,4.36 -11.48,5.53 -4.32,1.17 -8.91,1.76 -13.77,1.76 -3.77,0 -7.6,-0.41 -11.47,-1.22 -3.89,-0.81 -7.44,-2.16 -10.68,-4.04 -3.22,-1.9 -5.84,-4.38 -7.81,-7.44 -2,-3.05 -2.97,-6.83 -2.97,-11.33 0,-3.78 0.93,-6.98 2.83,-9.58 1.87,-2.62 4.26,-4.83 7.15,-6.62 2.87,-1.8 6.03,-3.29 9.45,-4.46 3.42,-1.17 6.56,-2.12 9.45,-2.83 l 22.68,-5.14 c 4.86,-0.71 9.67,-2.02 14.45,-3.91 4.77,-1.89 8.99,-4.37 12.68,-7.42 3.69,-3.06 6.7,-6.85 9.04,-11.34 2.34,-4.5 3.52,-9.82 3.52,-15.93 0,-7.56 -1.72,-14 -5.14,-19.31 -3.42,-5.31 -7.77,-9.63 -13.09,-12.96 -5.31,-3.33 -11.3,-5.71 -17.95,-7.15 -6.66,-1.44 -13.24,-2.16 -19.72,-2.16 -16.37,0 -29.65,3.87 -39.83,11.61 -10.15,7.73 -15.97,20.16 -17.4,37.26 h 17.01 c 0.71,-11.53 4.91,-20.21 12.56,-26.06 7.64,-5.85 17.13,-8.77 28.48,-8.77 4.14,0 8.42,0.44 12.83,1.35 4.4,0.9 8.5,2.43 12.29,4.59 3.77,2.16 6.87,4.9 9.31,8.23 2.42,3.33 3.63,7.42 3.63,12.29 0,4.14 -0.85,7.6 -2.55,10.4 -1.72,2.78 -4.01,5.12 -6.9,7.01 -2.87,1.89 -6.15,3.47 -9.84,4.72 -3.69,1.26 -7.42,2.35 -11.21,3.25 l -21.88,4.86 c -5.56,1.44 -10.7,3.11 -15.39,4.99 -4.67,1.9 -8.77,4.23 -12.28,7.02 -3.5,2.8 -6.25,6.21 -8.23,10.27 -1.99,4.04 -2.97,9.04 -2.97,14.98 0,7.02 1.57,13.04 4.73,18.09 3.15,5.03 7.23,9.08 12.29,12.15 5.02,3.06 10.66,5.3 16.87,6.75 6.19,1.43 12.36,2.16 18.48,2.16 7.03,0 13.55,-0.9 19.59,-2.7 6.01,-1.81 11.33,-4.59 15.92,-8.37 4.59,-3.79 8.24,-8.46 10.93,-14.04 2.7,-5.59 4.24,-12.15 4.59,-19.71 h -17.01 c -0.17,5.22 -1.25,9.76 -3.24,13.64"
         style="fill:#95a1a3;fill-opacity:1;fill-rule:nonzero;stroke:none"
         id="path56" /><g
         id="g58"><g
           id="g60"
           clip-path="url(#clipPath64)"><path
             d="m 4749.1,2914.09 c 122.57,65.36 229.22,179.65 245.07,299.78 28.2,213.9 -108.82,374.85 -283.77,449.05 -208.96,88.65 -69.53,25.16 -868.81,235.62 -384.17,101.15 -408.76,195.45 -400.14,263.42 -103.79,-67.97 -135.67,-438.24 44.24,-549.59 184.94,-114.45 553.42,-138.29 1016.48,-269.86 407.1,-115.69 346.86,-328.86 246.93,-428.42"
             style="fill:url(#linearGradient76);fill-opacity:1;fill-rule:nonzero;stroke:none"
             id="path78" /></g></g><g
         id="g80"><g
           id="g82"
           clip-path="url(#clipPath86)"><path
             d="m 4831.37,2851.26 c -35.36,20.98 -73.91,38.26 -115.04,51.19 -579.15,132.81 -629.96,130 -822.13,176.71 -523.66,127.34 -460.73,233.41 -474.1,275.75 -96.54,-102.95 -98.18,-424.96 80.8,-521.55 217.06,-117.14 599.01,-155.4 1083.02,-275.95 157.42,-39.2 249.65,-85.98 318.54,-141.39 76.47,-61.52 97.44,-151.43 38.84,-226.85 -51.28,-65.98 -188.3,-55.21 -340.2,-34.02 -269.4,37.56 -610.99,115.8 -706.9,142.39 -430.95,119.46 -460.73,233.41 -474.1,275.73 -96.54,-102.94 -98.18,-424.93 80.8,-521.54 141.9,-76.58 276.6,-120.59 568.53,-138.17 213.83,-12.85 602.24,-24.9 792.48,172.76 18.52,19.21 166.48,131.33 197.08,324.47 28.47,179.51 -70.08,346.98 -227.62,440.47"
             style="fill:url(#linearGradient98);fill-opacity:1;fill-rule:nonzero;stroke:none"
             id="path100" /></g></g><g
         id="g102"><g
           id="g104"
           clip-path="url(#clipPath108)"><path
             d="m 4375.52,2978.37 c -0.05,-0.01 -0.08,-0.02 -0.14,-0.03 173.44,-37.48 340.95,-75.89 340.95,-75.89 2.85,-0.89 5.69,-1.87 8.52,-2.82 8.26,4.64 16.4,9.43 24.28,14.49 99.91,99.57 160.1,312.71 -246.96,428.39 -28.1,7.99 -55.84,15.55 -83.23,22.8 114.12,-46.19 275.25,-296.47 -43.42,-386.94"
             style="fill:url(#linearGradient120);fill-opacity:1;fill-rule:nonzero;stroke:none"
             id="path122" /></g></g><g
         id="g124"><g
           id="g126"
           clip-path="url(#clipPath130)"><path
             d="m 4482.38,2196.65 c -7.74,-6.22 -15.77,-11.94 -24.06,-17.28 48.65,-9.5 96.77,-17.8 142.78,-24.22 151.9,-21.19 288.92,-31.96 340.2,34.02 58.6,75.42 37.63,165.33 -38.84,226.85 -126.57,101.8 -290.53,136.21 -457.21,174.57 121.83,-55.41 224.08,-243.19 37.13,-393.94"
             style="fill:url(#linearGradient142);fill-opacity:1;fill-rule:nonzero;stroke:none"
             id="path144" /></g></g></g></g></svg>
