<?xml version="1.0" encoding="UTF-8" standalone="no"?>
<svg
   xmlns:dc="http://purl.org/dc/elements/1.1/"
   xmlns:cc="http://creativecommons.org/ns#"
   xmlns:rdf="http://www.w3.org/1999/02/22-rdf-syntax-ns#"
   xmlns:svg="http://www.w3.org/2000/svg"
   xmlns="http://www.w3.org/2000/svg"
   xmlns:sodipodi="http://sodipodi.sourceforge.net/DTD/sodipodi-0.dtd"
   xmlns:inkscape="http://www.inkscape.org/namespaces/inkscape"
   version="1.1"
   id="svg2"
   xml:space="preserve"
   width="1122.52"
   height="755.90668"
   viewBox="0 0 1122.52 755.90668"
   sodipodi:docname="869.eps"><metadata
     id="metadata8"><rdf:RDF><cc:Work
         rdf:about=""><dc:format>image/svg+xml</dc:format><dc:type
           rdf:resource="http://purl.org/dc/dcmitype/StillImage" /></cc:Work></rdf:RDF></metadata><defs
     id="defs6"><clipPath
       clipPathUnits="userSpaceOnUse"
       id="clipPath62"><path
         d="m 3915.86,4114.07 c -98.22,-91.23 -211.55,-209.71 -324.35,-355.66 250.64,266.38 463.64,15.24 617.93,-171.68 152.99,-152.99 398.5,-481.72 398.5,-701.81 0,-92.91 -31.89,-178.32 -85.2,-246.08 182.67,181.61 552.68,610.63 413.68,968.84 -146.75,217.16 -303.29,385.56 -433.39,506.39 -165.42,153.64 -421.74,153.64 -587.17,0 z"
         id="path60" /></clipPath><radialGradient
       fx="0"
       fy="0"
       cx="0"
       cy="0"
       r="1"
       gradientUnits="userSpaceOnUse"
       gradientTransform="matrix(-822.104,1148.11,1148.11,822.104,4625.55,2943.52)"
       spreadMethod="pad"
       id="radialGradient70"><stop
         style="stop-opacity:1;stop-color:#3c7db7"
         offset="0"
         id="stop64" /><stop
         style="stop-opacity:1;stop-color:#59c5e3"
         offset="0.490909"
         id="stop66" /><stop
         style="stop-opacity:1;stop-color:#6ee6e5"
         offset="1"
         id="stop68" /></radialGradient><clipPath
       clipPathUnits="userSpaceOnUse"
       id="clipPath80"><path
         d="m 5067.68,2119.08 c 215.76,66.45 343.91,288.42 293.57,508.51 -49.5,216.41 -142.53,505.71 -317.02,807.95 -34.93,60.51 -71.09,117.78 -107.81,172.14 139,-358.21 -231.01,-787.23 -413.68,-968.84 -72.95,-92.76 -186.13,-152.4 -313.3,-152.4 -208.29,0 -379.17,159.86 -396.87,363.57 0.67,-254.82 96.88,-769.4 578.17,-854.53 270.75,17.13 502.56,69.9 676.94,123.6 z"
         id="path78" /></clipPath><radialGradient
       fx="0"
       fy="0"
       cx="0"
       cy="0"
       r="1"
       gradientUnits="userSpaceOnUse"
       gradientTransform="matrix(1474.14,-396.885,-396.885,-1474.14,3760.9,2518.29)"
       spreadMethod="pad"
       id="radialGradient88"><stop
         style="stop-opacity:1;stop-color:#3c7db7"
         offset="0"
         id="stop82" /><stop
         style="stop-opacity:1;stop-color:#59c5e3"
         offset="0.490909"
         id="stop84" /><stop
         style="stop-opacity:1;stop-color:#6ee6e5"
         offset="1"
         id="stop86" /></radialGradient><clipPath
       clipPathUnits="userSpaceOnUse"
       id="clipPath98"><path
         d="m 3812.57,2850.01 c -1.01,11.53 -1.62,23.14 -1.62,34.91 0,220.09 245.5,548.82 398.49,701.81 -154.29,186.92 -367.29,438.06 -617.93,171.68 -73.97,-95.73 -147.73,-203.16 -216.85,-322.87 -174.49,-302.24 -267.52,-591.54 -317.02,-807.95 -50.34,-220.09 77.82,-442.06 293.58,-508.51 212.18,-65.34 509.23,-129.42 858.22,-129.42 62.18,0 122.61,2.11 181.3,5.82 -481.29,85.13 -577.5,599.71 -578.17,854.53 z"
         id="path96" /></clipPath><radialGradient
       fx="0"
       fy="0"
       cx="0"
       cy="0"
       r="1"
       gradientUnits="userSpaceOnUse"
       gradientTransform="matrix(-8.06e-5,-1842.9,-1842.9,8.06e-5,3931,3794)"
       spreadMethod="pad"
       id="radialGradient106"><stop
         style="stop-opacity:1;stop-color:#3c7db7"
         offset="0"
         id="stop100" /><stop
         style="stop-opacity:1;stop-color:#59c5e3"
         offset="0.490909"
         id="stop102" /><stop
         style="stop-opacity:1;stop-color:#6ee6e5"
         offset="1"
         id="stop104" /></radialGradient></defs><sodipodi:namedview
     pagecolor="#ffffff"
     bordercolor="#666666"
     borderopacity="1"
     objecttolerance="10"
     gridtolerance="10"
     guidetolerance="10"
     inkscape:pageopacity="0"
     inkscape:pageshadow="2"
     inkscape:window-width="640"
     inkscape:window-height="480"
     id="namedview4" /><g
     id="g10"
     inkscape:groupmode="layer"
     inkscape:label="ink_ext_XXXXXX"
     transform="matrix(1.3333333,0,0,-1.3333333,0,755.90667)"><g
       id="g12"
       transform="scale(0.1)"><path
         d="M 8418.9,0 H 0 V 5669.29 H 8418.9 V 0"
         style="fill:#ffffff;fill-opacity:1;fill-rule:nonzero;stroke:none"
         id="path14" /><path
         d="m 3163.78,1367 h -95.68 l -56.05,259.72 -56.04,-259.72 h -95.69 l -99.78,363.61 h 92.95 l 57.41,-251.52 51.94,251.52 h 97.05 l 49.21,-251.52 50.58,218.71 c 5.47,21.87 20.03,32.81 43.74,32.81 h 60.14 L 3163.78,1367"
         style="fill:#818282;fill-opacity:1;fill-rule:nonzero;stroke:none"
         id="path16" /><path
         d="m 3482.68,1550.17 c -12.78,-6.39 -30.55,-12.3 -53.31,-17.76 l -31.45,-6.84 c -16.4,-4.57 -28.25,-10.49 -35.54,-17.77 -6.38,-10.04 -9.57,-20.06 -9.57,-30.07 0,-13.67 4.1,-24.61 12.31,-32.82 8.2,-7.3 20.04,-10.92 35.53,-10.92 25.51,0 45.56,7.27 60.15,21.86 14.57,14.57 21.88,34.62 21.88,60.15 z m 21.86,-168.13 c -19.13,-10.04 -39.42,-16.17 -60.82,-18.45 -21.43,-2.27 -40.33,-3.42 -56.73,-3.42 -32.81,0 -61.51,8.89 -86.12,26.66 -24.6,17.76 -36.91,47.16 -36.91,88.16 0,38.27 11.16,65.61 33.49,82.01 22.33,16.41 50.79,27.35 85.44,32.81 4.55,0 10.01,0.68 16.4,2.05 6.36,1.37 13.67,2.5 21.87,3.42 40.09,5.47 60.15,17.3 60.15,35.54 0,13.67 -7.07,22.55 -21.19,26.65 -14.14,4.11 -27.12,6.16 -38.96,6.16 -12.77,0 -24.16,-1.84 -34.17,-5.47 -10.04,-3.66 -17.32,-10.49 -21.87,-20.51 h -91.58 c 3.63,28.24 16.4,51.47 38.27,69.72 24.61,20.95 59.67,31.43 105.25,31.43 51.03,0 89.3,-8.67 114.82,-25.97 26.42,-18.24 39.64,-43.74 39.64,-76.54 V 1511.9 c 0,-36.46 -6.62,-64.93 -19.82,-85.43 -13.21,-20.51 -28.94,-35.33 -47.16,-44.43"
         style="fill:#818282;fill-opacity:1;fill-rule:nonzero;stroke:none"
         id="path18" /><path
         d="m 3760.48,1367 c -30.08,-1.81 -62.67,-1.36 -97.74,1.37 -35.09,2.74 -52.62,25.05 -52.62,66.98 v 401.87 h 49.21 c 11.82,0 22.31,-4.57 31.43,-13.66 9.1,-9.12 13.67,-20.06 13.67,-32.81 v -61.51 h 56.05 v -19.14 c 0,-13.67 -4.57,-24.84 -13.67,-33.49 -9.12,-8.67 -20.06,-12.98 -32.81,-12.98 h -9.57 v -202.31 c 0,-15.51 9.11,-23.23 27.34,-23.23 h 28.71 V 1367"
         style="fill:#818282;fill-opacity:1;fill-rule:nonzero;stroke:none"
         id="path20" /><path
         d="m 3871.52,1585.72 h 139.43 c -1.84,24.6 -8.2,42.82 -19.13,54.66 -11.86,12.76 -28.71,19.14 -50.58,19.14 -20.06,0 -36.46,-6.38 -49.21,-19.14 -12.77,-12.76 -19.61,-30.98 -20.51,-54.66 z m 164.04,-106.63 h 68.35 c -10.04,-38.28 -29.18,-67.45 -57.42,-87.49 -28.26,-20.96 -63.79,-31.43 -106.62,-31.43 -51.94,0 -92.5,16.85 -121.66,50.58 -29.17,32.8 -43.74,79.72 -43.74,140.79 0,58.31 14.12,103.88 42.38,136.69 29.16,33.71 69.71,50.57 121.66,50.57 54.67,0 97.05,-16.39 127.12,-49.21 29.16,-33.72 43.75,-80.64 43.75,-140.79 0,-3.65 0,-6.83 0,-9.57 0,-2.72 0,-4.57 0,-5.46 0,-4.57 -0.47,-7.75 -1.37,-9.57 h -236.49 c 0.9,-28.26 7.74,-49.21 20.51,-62.88 11.83,-14.59 29.6,-21.86 53.31,-21.86 15.48,0 28.7,3.17 39.64,9.56 2.73,0.89 5.23,2.5 7.52,4.78 2.27,2.27 4.79,4.79 7.52,7.52 0.89,2.74 4.31,6.37 10.24,10.94 5.92,4.55 14.36,6.83 25.3,6.83"
         style="fill:#818282;fill-opacity:1;fill-rule:nonzero;stroke:none"
         id="path22" /><path
         d="m 4138.42,1367 v 176.33 c 0,35.55 5.23,65.38 15.72,89.54 10.45,24.13 24.81,43.51 43.05,58.09 17.3,13.67 37.6,23.69 60.84,30.08 23.22,6.37 47.15,9.57 71.76,9.57 1.81,0 4.1,0 6.83,0 2.74,0 5,0 6.84,0 v -97.05 h -31.45 c -26.44,0 -46.03,-6.39 -58.77,-19.14 -12.77,-12.78 -19.14,-32.81 -19.14,-60.15 V 1367 h -95.68"
         style="fill:#818282;fill-opacity:1;fill-rule:nonzero;stroke:none"
         id="path24" /><path
         d="m 4451.76,1551.54 c 0,-36.46 6.83,-64.24 20.51,-83.38 13.67,-19.14 33.26,-28.7 58.78,-28.7 24.59,0 43.74,9.56 57.41,28.7 12.75,19.14 19.14,46.92 19.14,83.38 0,32.81 -6.84,58.78 -20.51,77.92 -14.59,18.21 -34.18,27.33 -58.77,27.33 -23.71,0 -42.38,-9.57 -56.05,-28.7 -13.68,-18.24 -20.51,-43.74 -20.51,-76.55 z m 155.84,287.05 h 46.46 c 12.76,0 23.69,-4.79 32.82,-14.35 9.1,-9.57 13.67,-20.29 13.67,-32.13 v -266.54 c 0,-64.72 -18.69,-108.46 -56.06,-131.23 -37.36,-22.78 -77.91,-34.17 -121.64,-34.17 -23.71,0 -46.95,3.89 -69.72,11.62 -22.78,7.73 -41,20.26 -54.67,37.59 -26.45,33.7 -39.65,79.72 -39.65,138.05 0,57.42 13.2,103.42 39.65,138.07 27.34,35.54 62.4,53.3 105.25,53.3 22.77,0 42.81,-4.57 60.14,-13.66 18.22,-10.94 32.81,-25.08 43.75,-42.37 v 155.82"
         style="fill:#818282;fill-opacity:1;fill-rule:nonzero;stroke:none"
         id="path26" /><path
         d="m 4730.94,1367 v 176.33 c 0,35.55 5.23,65.38 15.72,89.54 10.47,24.13 24.82,43.51 43.07,58.09 17.28,13.67 37.57,23.69 60.82,30.08 23.24,6.37 47.16,9.57 71.75,9.57 1.82,0 4.11,0 6.84,0 2.74,0 5,0 6.84,0 v -97.05 h -31.45 c -26.42,0 -46.01,-6.39 -58.77,-19.14 -12.77,-12.78 -19.14,-32.81 -19.14,-60.15 V 1367 h -95.68"
         style="fill:#818282;fill-opacity:1;fill-rule:nonzero;stroke:none"
         id="path28" /><path
         d="m 5070.27,1640.38 c -19.14,-20.96 -27.81,-52.17 -25.97,-93.63 1.81,-41.47 9.57,-70.39 23.24,-86.8 5.47,-7.3 15.02,-13.45 28.69,-18.45 13.67,-5.01 27.56,-5.46 41.7,-1.36 14.12,4.09 26.66,14.35 37.6,30.75 10.92,16.41 16.83,42.82 17.75,79.28 0,32.81 -5.25,57.41 -15.7,73.82 -10.49,16.39 -22.56,26.86 -36.23,31.43 -13.67,4.55 -27.35,4.79 -41.02,0.69 -13.67,-4.11 -23.71,-9.36 -30.06,-15.73 z m -65.62,-240.57 c -19.14,16.4 -32.79,38.48 -41,66.3 -8.2,27.78 -12.3,56.72 -12.3,86.79 0,24.61 3.42,49.21 10.25,73.82 6.84,24.6 17.54,45.11 32.11,61.51 23.69,27.34 54.22,43.51 91.58,48.52 37.37,5 71.1,2.05 101.16,-8.88 34.62,-13.67 60.15,-37.38 76.56,-71.08 15.47,-30.07 23.22,-65.17 23.22,-105.25 0,-29.17 -3.2,-54.23 -9.55,-75.18 -6.39,-20.98 -14.59,-38.75 -24.61,-53.31 -21.87,-30.08 -49.69,-48.76 -83.38,-56.05 -30.08,-8.2 -60.39,-8.88 -90.9,-2.05 -30.54,6.84 -54.92,18.46 -73.14,34.86"
         style="fill:#818282;fill-opacity:1;fill-rule:nonzero;stroke:none"
         id="path30" /><path
         d="m 5564.04,1547.43 c 0,35.55 -6.83,62.89 -20.5,82.03 -13.66,19.13 -33.27,28.7 -58.77,28.7 -24.61,0 -43.75,-9.57 -57.41,-28.7 -12.77,-17.33 -19.14,-44.67 -19.14,-82.03 0,-34.63 6.84,-60.61 20.51,-77.91 13.65,-19.14 33.24,-28.71 58.77,-28.71 23.69,0 42.38,9.57 56.04,28.71 13.67,19.14 20.5,45.11 20.5,77.91 z m -155.82,-267.91 c 0,-12.75 -4.57,-23.69 -13.67,-32.81 -9.12,-9.09 -20.06,-13.66 -32.81,-13.66 h -46.47 v 340.36 c 0,63.77 18.66,107.31 56.04,130.54 37.36,23.24 77.91,34.85 121.66,34.85 22.77,0 45.78,-4.33 69.02,-12.98 23.24,-8.67 41.7,-21.19 55.37,-37.59 27.33,-35.54 41,-81.12 41,-136.69 0,-57.42 -13.67,-103.89 -41,-139.43 -27.34,-34.64 -62.44,-51.94 -105.25,-51.94 -22.79,0 -42.85,4.1 -60.16,12.3 -18.24,9.11 -32.79,23.24 -43.73,42.38 v -135.33"
         style="fill:#818282;fill-opacity:1;fill-rule:nonzero;stroke:none"
         id="path32" /><path
         d="m 3407.56,1171.58 v -23.49 h 0.81 c 4.5,8.64 10.4,15.39 17.68,20.25 7.3,4.86 16.61,7.29 27.95,7.29 9.18,0 17.5,-2.26 24.97,-6.75 7.48,-4.5 12.47,-11.34 14.99,-20.52 4.14,9.18 10.26,16.02 18.36,20.52 8.1,4.49 16.74,6.75 25.92,6.75 30.78,0 46.17,-16.29 46.17,-48.87 v -94.5 h -17.01 v 93.69 c 0,11.51 -2.43,20.29 -7.29,26.33 -4.86,6.02 -13.41,9.04 -25.65,9.04 -7.38,0 -13.5,-1.4 -18.36,-4.19 -4.86,-2.79 -8.74,-6.52 -11.61,-11.2 -2.88,-4.69 -4.91,-10.04 -6.07,-16.06 -1.17,-6.04 -1.76,-12.29 -1.76,-18.77 v -78.84 h -17.01 v 94.5 c 0,4.68 -0.5,9.13 -1.49,13.36 -0.98,4.23 -2.6,7.92 -4.85,11.07 -2.26,3.15 -5.27,5.63 -9.05,7.43 -3.78,1.79 -8.37,2.7 -13.77,2.7 -7.2,0 -13.46,-1.31 -18.76,-3.91 -5.31,-2.62 -9.64,-6.22 -12.96,-10.81 -3.34,-4.59 -5.81,-9.99 -7.43,-16.2 -1.62,-6.21 -2.43,-13 -2.43,-20.38 v -77.76 h -17.01 v 139.32 h 15.66"
         style="fill:#8c9799;fill-opacity:1;fill-rule:nonzero;stroke:none"
         id="path34" /><path
         d="m 3648.94,1171.58 v -139.32 h -17.02 v 139.32 z m 0,53.46 v -27.27 h -17.02 v 27.27 h 17.02"
         style="fill:#8c9799;fill-opacity:1;fill-rule:nonzero;stroke:none"
         id="path36" /><path
         d="m 3713.19,1171.58 v -24.03 h 0.55 c 3.23,8.46 8.99,15.26 17.28,20.38 8.28,5.13 17.37,7.7 27.27,7.7 9.72,0 17.86,-1.26 24.43,-3.78 6.57,-2.52 11.83,-6.08 15.8,-10.67 3.95,-4.59 6.74,-10.21 8.36,-16.87 1.63,-6.66 2.44,-14.13 2.44,-22.41 v -89.64 h -17.02 v 86.94 c 0,5.94 -0.53,11.48 -1.62,16.6 -1.07,5.13 -2.97,9.59 -5.66,13.37 -2.71,3.78 -6.35,6.75 -10.94,8.91 -4.59,2.16 -10.3,3.24 -17.15,3.24 -6.83,0 -12.92,-1.22 -18.22,-3.65 -5.31,-2.42 -9.81,-5.76 -13.5,-9.98 -3.69,-4.24 -6.57,-9.28 -8.64,-15.13 -2.07,-5.85 -3.2,-12.2 -3.38,-19.03 v -81.27 h -17.01 v 139.32 h 17.01"
         style="fill:#8c9799;fill-opacity:1;fill-rule:nonzero;stroke:none"
         id="path38" /><path
         d="m 3953.09,1130.27 c -2.07,5.93 -4.99,11.21 -8.77,15.8 -3.78,4.59 -8.37,8.27 -13.77,11.06 -5.4,2.79 -11.53,4.19 -18.36,4.19 -7.02,0 -13.23,-1.4 -18.64,-4.19 -5.4,-2.79 -9.99,-6.47 -13.76,-11.06 -3.78,-4.59 -6.8,-9.91 -9.05,-15.94 -2.25,-6.03 -3.74,-12.2 -4.45,-18.49 h 90.17 c -0.18,6.48 -1.3,12.69 -3.37,18.63 z m -84.24,-51.98 c 1.71,-6.57 4.45,-12.47 8.24,-17.68 3.78,-5.23 8.54,-9.54 14.31,-12.96 5.76,-3.42 12.68,-5.13 20.79,-5.13 12.42,0 22.14,3.23 29.16,9.72 7.02,6.48 11.87,15.12 14.58,25.92 h 17.01 c -3.6,-15.84 -10.23,-28.08 -19.85,-36.72 -9.63,-8.64 -23.27,-12.96 -40.9,-12.96 -10.99,0 -20.48,1.93 -28.49,5.8 -8.01,3.88 -14.54,9.18 -19.58,15.94 -5.04,6.75 -8.77,14.58 -11.2,23.48 -2.43,8.91 -3.64,18.31 -3.64,28.22 0,9.18 1.21,18.18 3.64,27 2.43,8.82 6.16,16.69 11.2,23.62 5.04,6.94 11.57,12.51 19.58,16.74 8.01,4.23 17.5,6.35 28.49,6.35 11.15,0 20.69,-2.26 28.61,-6.75 7.92,-4.5 14.36,-10.4 19.31,-17.69 4.95,-7.29 8.5,-15.66 10.66,-25.1 2.17,-9.46 3.07,-19.05 2.71,-28.76 h -107.19 c 0,-6.13 0.85,-12.46 2.56,-19.04"
         style="fill:#8c9799;fill-opacity:1;fill-rule:nonzero;stroke:none"
         id="path40" /><path
         d="m 4026.93,1171.58 v -32.67 h 0.55 c 4.32,11.34 11.02,20.07 20.11,26.19 9.09,6.11 19.93,8.91 32.54,8.37 v -17.01 c -7.75,0.36 -14.77,-0.68 -21.07,-3.11 -6.3,-2.43 -11.74,-5.9 -16.33,-10.39 -4.59,-4.5 -8.15,-9.85 -10.66,-16.06 -2.53,-6.21 -3.79,-13.01 -3.79,-20.39 v -74.25 h -17 v 139.32 h 15.65"
         style="fill:#8c9799;fill-opacity:1;fill-rule:nonzero;stroke:none"
         id="path42" /><path
         d="m 4199.73,1108.4 c -1.08,-1.98 -3.16,-3.43 -6.21,-4.32 -3.06,-0.9 -5.77,-1.53 -8.1,-1.89 -7.21,-1.26 -14.63,-2.39 -22.28,-3.38 -7.65,-0.98 -14.62,-2.47 -20.92,-4.45 -6.3,-1.98 -11.48,-4.82 -15.53,-8.51 -4.04,-3.69 -6.07,-8.95 -6.07,-15.79 0,-4.32 0.85,-8.14 2.56,-11.47 1.71,-3.34 4.01,-6.21 6.89,-8.65 2.88,-2.43 6.21,-4.27 9.99,-5.53 3.78,-1.26 7.65,-1.89 11.61,-1.89 6.47,0 12.69,0.99 18.63,2.97 5.94,1.97 11.11,4.85 15.52,8.63 4.41,3.79 7.92,8.38 10.54,13.78 2.6,5.39 3.9,11.52 3.9,18.36 v 22.14 z m -85.05,41.58 c 2.88,5.94 6.79,10.79 11.75,14.58 4.94,3.78 10.75,6.57 17.41,8.37 6.66,1.8 14.04,2.7 22.14,2.7 6.12,0 12.23,-0.59 18.36,-1.76 6.12,-1.17 11.61,-3.37 16.47,-6.61 4.85,-3.24 8.81,-7.78 11.88,-13.63 3.05,-5.85 4.59,-13.46 4.59,-22.82 v -73.98 c 0,-6.85 3.33,-10.26 9.99,-10.26 1.98,0 3.77,0.36 5.4,1.08 v -14.31 c -1.99,-0.37 -3.74,-0.63 -5.27,-0.81 -1.53,-0.18 -3.46,-0.27 -5.81,-0.27 -4.31,0 -7.78,0.58 -10.39,1.76 -2.62,1.16 -4.64,2.83 -6.07,4.99 -1.45,2.15 -2.39,4.72 -2.84,7.69 -0.44,2.97 -0.67,6.25 -0.67,9.86 h -0.55 c -3.05,-4.51 -6.16,-8.51 -9.3,-12.02 -3.16,-3.5 -6.67,-6.43 -10.54,-8.78 -3.87,-2.33 -8.28,-4.13 -13.22,-5.4 -4.96,-1.25 -10.85,-1.88 -17.69,-1.88 -6.48,0 -12.56,0.77 -18.23,2.29 -5.66,1.53 -10.62,3.96 -14.84,7.29 -4.24,3.33 -7.56,7.57 -9.99,12.69 -2.44,5.13 -3.66,11.21 -3.66,18.23 0,9.71 2.17,17.32 6.49,22.81 4.31,5.49 10.03,9.68 17.15,12.56 7.11,2.88 15.11,4.9 24.02,6.07 8.92,1.17 17.96,2.3 27.14,3.38 3.59,0.35 6.75,0.81 9.45,1.35 2.7,0.54 4.94,1.48 6.75,2.83 1.8,1.35 3.19,3.19 4.18,5.54 0.99,2.33 1.48,5.4 1.48,9.18 0,5.76 -0.93,10.49 -2.83,14.18 -1.88,3.68 -4.5,6.61 -7.83,8.77 -3.33,2.16 -7.2,3.64 -11.6,4.45 -4.42,0.81 -9.14,1.22 -14.18,1.22 -10.8,0 -19.62,-2.57 -26.47,-7.69 -6.83,-5.14 -10.44,-13.37 -10.79,-24.71 h -17.01 c 0.54,8.09 2.25,15.12 5.13,21.06"
         style="fill:#8c9799;fill-opacity:1;fill-rule:nonzero;stroke:none"
         id="path44" /><path
         d="m 4283.43,1225.04 v -192.78 h -17 v 192.78 h 17"
         style="fill:#8c9799;fill-opacity:1;fill-rule:nonzero;stroke:none"
         id="path46" /><path
         d="m 4509.41,1108.4 c -1.07,-1.98 -3.14,-3.43 -6.2,-4.32 -3.06,-0.9 -5.77,-1.53 -8.1,-1.89 -7.2,-1.26 -14.63,-2.39 -22.28,-3.38 -7.65,-0.98 -14.63,-2.47 -20.93,-4.45 -6.29,-1.98 -11.47,-4.82 -15.51,-8.51 -4.06,-3.69 -6.08,-8.95 -6.08,-15.79 0,-4.32 0.85,-8.14 2.56,-11.47 1.71,-3.34 4.01,-6.21 6.89,-8.65 2.88,-2.43 6.21,-4.27 9.99,-5.53 3.78,-1.26 7.64,-1.89 11.61,-1.89 6.48,0 12.69,0.99 18.63,2.97 5.94,1.97 11.11,4.85 15.53,8.63 4.4,3.79 7.91,8.38 10.52,13.78 2.61,5.39 3.92,11.52 3.92,18.36 v 22.14 z m -85.04,41.58 c 2.88,5.94 6.79,10.79 11.74,14.58 4.95,3.78 10.76,6.57 17.42,8.37 6.66,1.8 14.04,2.7 22.13,2.7 6.13,0 12.25,-0.59 18.36,-1.76 6.13,-1.17 11.61,-3.37 16.48,-6.61 4.86,-3.24 8.82,-7.78 11.88,-13.63 3.06,-5.85 4.59,-13.46 4.59,-22.82 v -73.98 c 0,-6.85 3.32,-10.26 9.99,-10.26 1.98,0 3.78,0.36 5.39,1.08 v -14.31 c -1.98,-0.37 -3.73,-0.63 -5.26,-0.81 -1.52,-0.18 -3.47,-0.27 -5.8,-0.27 -4.32,0 -7.79,0.58 -10.4,1.76 -2.61,1.16 -4.63,2.83 -6.08,4.99 -1.43,2.15 -2.38,4.72 -2.83,7.69 -0.45,2.97 -0.67,6.25 -0.67,9.86 h -0.54 c -3.06,-4.51 -6.17,-8.51 -9.31,-12.02 -3.16,-3.5 -6.67,-6.43 -10.53,-8.78 -3.88,-2.33 -8.28,-4.13 -13.23,-5.4 -4.96,-1.25 -10.85,-1.88 -17.69,-1.88 -6.48,0 -12.56,0.77 -18.22,2.29 -5.68,1.53 -10.63,3.96 -14.86,7.29 -4.22,3.33 -7.55,7.57 -9.99,12.69 -2.43,5.13 -3.64,11.21 -3.64,18.23 0,9.71 2.16,17.32 6.48,22.81 4.32,5.49 10.03,9.68 17.14,12.56 7.11,2.88 15.12,4.9 24.04,6.07 8.9,1.17 17.95,2.3 27.13,3.38 3.6,0.35 6.74,0.81 9.45,1.35 2.69,0.54 4.95,1.48 6.75,2.83 1.79,1.35 3.19,3.19 4.19,5.54 0.98,2.33 1.48,5.4 1.48,9.18 0,5.76 -0.95,10.49 -2.84,14.18 -1.89,3.68 -4.5,6.61 -7.82,8.77 -3.34,2.16 -7.21,3.64 -11.61,4.45 -4.42,0.81 -9.15,1.22 -14.18,1.22 -10.8,0 -19.62,-2.57 -26.46,-7.69 -6.84,-5.14 -10.44,-13.37 -10.8,-24.71 h -17.01 c 0.54,8.09 2.24,15.12 5.13,21.06"
         style="fill:#8c9799;fill-opacity:1;fill-rule:nonzero;stroke:none"
         id="path48" /><path
         d="m 4589.47,1080.45 c 1.71,-7.11 4.42,-13.45 8.11,-19.03 3.68,-5.59 8.41,-10.13 14.17,-13.63 5.76,-3.52 12.69,-5.27 20.79,-5.27 8.99,0 16.6,1.75 22.81,5.27 6.21,3.5 11.25,8.04 15.13,13.63 3.87,5.58 6.65,11.92 8.37,19.03 1.71,7.11 2.56,14.27 2.56,21.47 0,7.19 -0.85,14.35 -2.56,21.46 -1.72,7.11 -4.5,13.46 -8.37,19.03 -3.88,5.58 -8.92,10.13 -15.13,13.65 -6.21,3.5 -13.82,5.26 -22.81,5.26 -8.1,0 -15.03,-1.76 -20.79,-5.26 -5.76,-3.52 -10.49,-8.07 -14.17,-13.65 -3.69,-5.57 -6.4,-11.92 -8.11,-19.03 -1.71,-7.11 -2.57,-14.27 -2.57,-21.46 0,-7.2 0.86,-14.36 2.57,-21.47 z m 91.94,-99.489 v 77.759 h -0.54 c -1.81,-5.05 -4.37,-9.45 -7.7,-13.23 -3.33,-3.78 -7.15,-6.93 -11.47,-9.45 -4.32,-2.52 -8.96,-4.41 -13.91,-5.68 -4.95,-1.25 -10.04,-1.88 -15.25,-1.88 -10.63,0 -19.84,1.93 -27.68,5.8 -7.83,3.88 -14.35,9.18 -19.57,15.94 -5.22,6.75 -9.09,14.58 -11.61,23.48 -2.53,8.91 -3.78,18.31 -3.78,28.22 0,9.9 1.25,19.3 3.78,28.21 2.52,8.92 6.39,16.75 11.61,23.5 5.22,6.74 11.74,12.1 19.57,16.06 7.84,3.96 17.05,5.94 27.68,5.94 5.04,0 10.13,-0.72 15.25,-2.16 5.13,-1.45 9.94,-3.52 14.45,-6.21 4.5,-2.7 8.5,-5.9 12.02,-9.59 3.5,-3.69 6.16,-7.87 7.96,-12.55 h 0.53 v 26.46 h 15.67 V 980.961 h -17.01"
         style="fill:#8c9799;fill-opacity:1;fill-rule:nonzero;stroke:none"
         id="path50" /><path
         d="m 4842.86,1032.26 v 25.11 h -0.54 c -4.5,-9.36 -11.02,-16.52 -19.58,-21.47 -8.54,-4.94 -18.04,-7.42 -28.47,-7.42 -8.83,0 -16.34,1.21 -22.55,3.64 -6.21,2.43 -11.25,5.9 -15.12,10.4 -3.88,4.49 -6.71,9.99 -8.5,16.47 -1.81,6.48 -2.71,13.85 -2.71,22.14 v 90.45 h 17.01 v -90.72 c 0.36,-12.61 3.28,-22.14 8.78,-28.62 5.49,-6.49 14.98,-9.72 28.48,-9.72 7.38,0 13.68,1.57 18.9,4.72 5.22,3.15 9.55,7.33 12.96,12.56 3.42,5.21 5.94,11.2 7.56,17.96 1.62,6.74 2.43,13.63 2.43,20.65 v 73.17 h 17.02 v -139.32 h -15.67"
         style="fill:#8c9799;fill-opacity:1;fill-rule:nonzero;stroke:none"
         id="path52" /><path
         d="m 4994.05,1108.4 c -1.07,-1.98 -3.14,-3.43 -6.2,-4.32 -3.06,-0.9 -5.77,-1.53 -8.1,-1.89 -7.2,-1.26 -14.63,-2.39 -22.28,-3.38 -7.66,-0.98 -14.63,-2.47 -20.93,-4.45 -6.3,-1.98 -11.47,-4.82 -15.51,-8.51 -4.06,-3.69 -6.08,-8.95 -6.08,-15.79 0,-4.32 0.85,-8.14 2.56,-11.47 1.71,-3.34 4,-6.21 6.88,-8.65 2.89,-2.43 6.22,-4.27 9.99,-5.53 3.78,-1.26 7.65,-1.89 11.62,-1.89 6.48,0 12.69,0.99 18.63,2.97 5.94,1.97 11.11,4.85 15.53,8.63 4.4,3.79 7.91,8.38 10.52,13.78 2.61,5.39 3.92,11.52 3.92,18.36 v 22.14 z m -85.05,41.58 c 2.88,5.94 6.8,10.79 11.75,14.58 4.95,3.78 10.75,6.57 17.41,8.37 6.66,1.8 14.05,2.7 22.14,2.7 6.13,0 12.25,-0.59 18.36,-1.76 6.13,-1.17 11.61,-3.37 16.48,-6.61 4.86,-3.24 8.82,-7.78 11.88,-13.63 3.06,-5.85 4.59,-13.46 4.59,-22.82 v -73.98 c 0,-6.85 3.32,-10.26 9.99,-10.26 1.97,0 3.78,0.36 5.39,1.08 v -14.31 c -1.98,-0.37 -3.73,-0.63 -5.26,-0.81 -1.52,-0.18 -3.47,-0.27 -5.8,-0.27 -4.32,0 -7.8,0.58 -10.4,1.76 -2.61,1.16 -4.63,2.83 -6.08,4.99 -1.43,2.15 -2.38,4.72 -2.83,7.69 -0.45,2.97 -0.67,6.25 -0.67,9.86 h -0.54 c -3.07,-4.51 -6.17,-8.51 -9.32,-12.02 -3.15,-3.5 -6.66,-6.43 -10.52,-8.78 -3.88,-2.33 -8.28,-4.13 -13.24,-5.4 -4.95,-1.25 -10.85,-1.88 -17.68,-1.88 -6.49,0 -12.56,0.77 -18.22,2.29 -5.68,1.53 -10.63,3.96 -14.86,7.29 -4.23,3.33 -7.56,7.57 -9.99,12.69 -2.43,5.13 -3.64,11.21 -3.64,18.23 0,9.71 2.16,17.32 6.47,22.81 4.33,5.49 10.04,9.68 17.15,12.56 7.11,2.88 15.12,4.9 24.04,6.07 8.9,1.17 17.94,2.3 27.12,3.38 3.61,0.35 6.75,0.81 9.46,1.35 2.69,0.54 4.95,1.48 6.75,2.83 1.79,1.35 3.19,3.19 4.19,5.54 0.98,2.33 1.48,5.4 1.48,9.18 0,5.76 -0.95,10.49 -2.84,14.18 -1.89,3.68 -4.5,6.61 -7.82,8.77 -3.34,2.16 -7.21,3.64 -11.62,4.45 -4.41,0.81 -9.14,1.22 -14.18,1.22 -10.8,0 -19.61,-2.57 -26.45,-7.69 -6.85,-5.14 -10.44,-13.37 -10.8,-24.71 h -17.01 c 0.53,8.09 2.24,15.12 5.12,21.06"
         style="fill:#8c9799;fill-opacity:1;fill-rule:nonzero;stroke:none"
         id="path54" /><g
         id="g56"><g
           id="g58"
           clip-path="url(#clipPath62)"><path
             d="m 3915.86,4114.07 c -98.22,-91.23 -211.55,-209.71 -324.35,-355.66 250.64,266.38 463.64,15.24 617.93,-171.68 152.99,-152.99 398.5,-481.72 398.5,-701.81 0,-92.91 -31.89,-178.32 -85.2,-246.08 182.67,181.61 552.68,610.63 413.68,968.84 -146.75,217.16 -303.29,385.56 -433.39,506.39 -165.42,153.64 -421.74,153.64 -587.17,0"
             style="fill:url(#radialGradient70);fill-opacity:1;fill-rule:nonzero;stroke:none"
             id="path72" /></g></g><g
         id="g74"><g
           id="g76"
           clip-path="url(#clipPath80)"><path
             d="m 5067.68,2119.08 c 215.76,66.45 343.91,288.42 293.57,508.51 -49.5,216.41 -142.53,505.71 -317.02,807.95 -34.93,60.51 -71.09,117.78 -107.81,172.14 139,-358.21 -231.01,-787.23 -413.68,-968.84 -72.95,-92.76 -186.13,-152.4 -313.3,-152.4 -208.29,0 -379.17,159.86 -396.87,363.57 0.67,-254.82 96.88,-769.4 578.17,-854.53 270.75,17.13 502.56,69.9 676.94,123.6"
             style="fill:url(#radialGradient88);fill-opacity:1;fill-rule:nonzero;stroke:none"
             id="path90" /></g></g><g
         id="g92"><g
           id="g94"
           clip-path="url(#clipPath98)"><path
             d="m 3812.57,2850.01 c -1.01,11.53 -1.62,23.14 -1.62,34.91 0,220.09 245.5,548.82 398.49,701.81 -154.29,186.92 -367.29,438.06 -617.93,171.68 -73.97,-95.73 -147.73,-203.16 -216.85,-322.87 -174.49,-302.24 -267.52,-591.54 -317.02,-807.95 -50.34,-220.09 77.82,-442.06 293.58,-508.51 212.18,-65.34 509.23,-129.42 858.22,-129.42 62.18,0 122.61,2.11 181.3,5.82 -481.29,85.13 -577.5,599.71 -578.17,854.53"
             style="fill:url(#radialGradient106);fill-opacity:1;fill-rule:nonzero;stroke:none"
             id="path108" /></g></g></g></g></svg>
