<?xml version="1.0" encoding="UTF-8" standalone="no"?>
<svg
   xmlns:dc="http://purl.org/dc/elements/1.1/"
   xmlns:cc="http://creativecommons.org/ns#"
   xmlns:rdf="http://www.w3.org/1999/02/22-rdf-syntax-ns#"
   xmlns:svg="http://www.w3.org/2000/svg"
   xmlns="http://www.w3.org/2000/svg"
   xmlns:sodipodi="http://sodipodi.sourceforge.net/DTD/sodipodi-0.dtd"
   xmlns:inkscape="http://www.inkscape.org/namespaces/inkscape"
   version="1.1"
   id="svg2"
   xml:space="preserve"
   width="1122.52"
   height="755.90668"
   viewBox="0 0 1122.52 755.90668"
   sodipodi:docname="18062642.eps"><metadata
     id="metadata8"><rdf:RDF><cc:Work
         rdf:about=""><dc:format>image/svg+xml</dc:format><dc:type
           rdf:resource="http://purl.org/dc/dcmitype/StillImage" /></cc:Work></rdf:RDF></metadata><defs
     id="defs6"><clipPath
       clipPathUnits="userSpaceOnUse"
       id="clipPath62"><path
         d="m 4108.42,2954.39 c -66.43,-207.23 -36.58,-442.21 101.19,-631.69 163.63,-225.09 414.79,-321.48 687.56,-281.93 154.19,22.38 249.09,96.34 249.12,96.34 183.96,146.34 221.79,318.69 164.48,405.78 -52.56,79.95 -131.38,135.2 -350.22,79.72 -333.07,-86.3 -760.34,97.31 -852.13,331.78 z"
         id="path60" /></clipPath><linearGradient
       x1="0"
       y1="0"
       x2="1"
       y2="0"
       gradientUnits="userSpaceOnUse"
       gradientTransform="matrix(1310.29,221.597,221.597,-1310.29,4197.3,2445.83)"
       spreadMethod="pad"
       id="linearGradient72"><stop
         style="stop-opacity:1;stop-color:#0b4496"
         offset="0"
         id="stop64" /><stop
         style="stop-opacity:1;stop-color:#0b4496"
         offset="0.10303"
         id="stop66" /><stop
         style="stop-opacity:1;stop-color:#27aae1"
         offset="0.963636"
         id="stop68" /><stop
         style="stop-opacity:1;stop-color:#27aae1"
         offset="1"
         id="stop70" /></linearGradient><clipPath
       clipPathUnits="userSpaceOnUse"
       id="clipPath82"><path
         d="m 4365.55,3309.64 c 208.1,151.32 471.09,172.47 691.89,78.87 135.76,420.93 -235.85,592.28 -379.61,527.28 23.37,144.19 -53.31,307.95 -265.72,357.02 -261.26,60.35 -442.05,-117.43 -442.05,-117.43 0,0 48.41,139.59 -93.4,205.46 -114.37,53.14 -245.02,-41.84 -245.02,-41.84 -594.34,-432.15 -725.8,-1264.27 -293.66,-1858.59 325.53,-447.69 878,-632.73 1384.83,-512.05 137.13,32.64 307.91,100.85 411.39,179.76 -308.91,-177.41 -710.33,-100.1 -924.59,194.58 -229.48,315.58 -159.66,757.47 155.94,986.94 z"
         id="path80" /></clipPath><linearGradient
       x1="0"
       y1="0"
       x2="1"
       y2="0"
       gradientUnits="userSpaceOnUse"
       gradientTransform="matrix(60.0004,-2240.01,-2240.01,-60.0004,4071.48,4071.01)"
       spreadMethod="pad"
       id="linearGradient92"><stop
         style="stop-opacity:1;stop-color:#1c75bc"
         offset="0"
         id="stop84" /><stop
         style="stop-opacity:1;stop-color:#27aae1"
         offset="0.292584"
         id="stop86" /><stop
         style="stop-opacity:1;stop-color:#08bff7"
         offset="0.987879"
         id="stop88" /><stop
         style="stop-opacity:1;stop-color:#08bff7"
         offset="1"
         id="stop90" /></linearGradient></defs><sodipodi:namedview
     pagecolor="#ffffff"
     bordercolor="#666666"
     borderopacity="1"
     objecttolerance="10"
     gridtolerance="10"
     guidetolerance="10"
     inkscape:pageopacity="0"
     inkscape:pageshadow="2"
     inkscape:window-width="640"
     inkscape:window-height="480"
     id="namedview4" /><g
     id="g10"
     inkscape:groupmode="layer"
     inkscape:label="ink_ext_XXXXXX"
     transform="matrix(1.3333333,0,0,-1.3333333,0,755.90667)"><g
       id="g12"
       transform="scale(0.1)"><path
         d="M 8418.9,0 H 0 V 5669.29 H 8418.9 V 0"
         style="fill:#ffffff;fill-opacity:1;fill-rule:nonzero;stroke:none"
         id="path14" /><path
         d="m 2966.56,1433.72 c 0,37.13 -7.73,65.99 -23.21,86.63 -15.46,21.65 -36.61,32.48 -63.42,32.48 -28.89,0 -51.06,-10.31 -66.52,-30.92 -15.47,-21.66 -23.2,-51.06 -23.2,-88.19 0,-43.32 7.2,-74.79 21.66,-94.37 15.45,-21.66 37.12,-32.48 64.97,-32.48 28.86,0 51.05,10.82 66.51,32.48 15.48,21.67 23.21,53.1 23.21,94.37 z m -176.35,272.27 v -123.75 c 11.33,19.57 27.85,35.58 49.5,47.96 18.56,10.28 41.23,15.46 68.07,15.46 48.46,0 88.17,-20.11 119.12,-60.33 30.93,-40.23 46.41,-92.32 46.41,-156.25 0,-63.96 -15.48,-116.03 -46.41,-156.25 -15.48,-19.6 -36.36,-33.78 -62.66,-42.54 -26.3,-8.75 -52.35,-13.15 -78.13,-13.15 -49.5,0 -95.4,12.88 -137.67,38.67 -42.31,25.77 -63.43,75.28 -63.43,148.52 v 354.26 h 52.59 c 14.44,0 26.82,-5.17 37.13,-15.46 10.3,-10.32 15.48,-22.71 15.48,-37.14"
         style="fill:#696c6d;fill-opacity:1;fill-rule:nonzero;stroke:none"
         id="path16" /><path
         d="m 3112.35,1757.03 h 55.7 c 14.43,0 26.8,-4.9 37.12,-14.67 10.3,-9.82 15.47,-21.94 15.47,-36.37 v -481.11 h -108.29 v 532.15"
         style="fill:#696c6d;fill-opacity:1;fill-rule:nonzero;stroke:none"
         id="path18" /><path
         d="m 3625.28,1636.38 v -241.34 c 0,-73.24 -19.1,-121.19 -57.24,-143.87 -38.18,-22.69 -79.94,-34.03 -125.32,-34.03 -44.35,2.07 -84.84,14.44 -121.43,37.12 -36.62,22.68 -54.92,69.62 -54.92,140.78 v 241.34 h 108.29 v -263 c 0,-24.74 7.2,-42.8 21.66,-54.14 14.42,-11.37 30.94,-17.01 49.5,-17.01 18.56,0 35.32,5.64 50.28,17.01 14.93,11.34 22.43,29.4 22.43,54.14 v 210.4 c 0,14.43 4.88,26.81 14.69,37.13 9.8,10.29 22.44,15.47 37.91,15.47 h 54.15"
         style="fill:#696c6d;fill-opacity:1;fill-rule:nonzero;stroke:none"
         id="path20" /><path
         d="m 3770,1472.41 h 157.79 c -2.08,27.84 -9.27,48.45 -21.65,61.86 -13.42,14.43 -32.5,21.66 -57.24,21.66 -22.7,0 -41.27,-7.23 -55.7,-21.66 -14.45,-14.44 -22.19,-35.07 -23.2,-61.86 z m 185.64,-120.68 h 77.34 c -11.35,-43.32 -33.01,-76.34 -64.96,-99.01 -31.99,-23.73 -72.2,-35.58 -120.67,-35.58 -58.79,0 -104.68,19.07 -137.69,57.24 -33.01,37.12 -49.5,90.23 -49.5,159.34 0,65.99 15.98,117.57 47.96,154.7 33,38.15 78.9,57.24 137.69,57.24 61.88,0 109.83,-18.56 143.86,-55.7 33,-38.16 49.5,-91.27 49.5,-159.33 0,-4.14 0,-7.75 0,-10.84 0,-3.09 0,-5.18 0,-6.17 0,-5.18 -0.53,-8.78 -1.54,-10.83 H 3770 c 1.01,-32 8.75,-55.7 23.2,-71.18 13.39,-16.51 33.5,-24.74 60.34,-24.74 17.51,0 32.48,3.59 44.86,10.82 3.09,1.02 5.92,2.83 8.51,5.42 2.56,2.56 5.42,5.42 8.51,8.5 1.01,3.1 4.87,7.22 11.6,12.39 6.69,5.14 16.24,7.73 28.62,7.73"
         style="fill:#696c6d;fill-opacity:1;fill-rule:nonzero;stroke:none"
         id="path22" /><path
         d="m 4494.45,1224.88 h -108.3 l -63.42,293.93 -63.43,-293.93 h -108.28 l -112.93,411.5 h 105.2 l 64.97,-284.65 58.77,284.65 h 109.85 l 55.7,-284.65 57.22,247.51 c 6.2,24.77 22.68,37.14 49.52,37.14 h 68.06 l -112.93,-411.5"
         style="fill:#696c6d;fill-opacity:1;fill-rule:nonzero;stroke:none"
         id="path24" /><path
         d="m 4844.03,1432.17 c -14.46,-7.23 -34.57,-13.92 -60.33,-20.1 l -35.58,-7.74 c -18.57,-5.17 -31.99,-11.88 -40.23,-20.12 -7.23,-11.36 -10.84,-22.69 -10.84,-34.03 0,-15.47 4.65,-27.84 13.94,-37.13 9.27,-8.27 22.67,-12.36 40.22,-12.36 28.87,0 51.54,8.22 68.07,24.74 16.48,16.49 24.75,39.18 24.75,68.07 z m 24.75,-190.28 c -21.66,-11.35 -44.62,-18.29 -68.83,-20.89 -24.25,-2.56 -45.64,-3.86 -64.22,-3.86 -37.13,0 -69.6,10.05 -97.45,30.17 -27.85,20.1 -41.78,53.38 -41.78,99.78 0,43.31 12.63,74.24 37.91,92.82 25.27,18.57 57.47,30.94 96.69,37.12 5.15,0 11.34,0.78 18.57,2.33 7.21,1.54 15.47,2.82 24.75,3.87 45.36,6.18 68.07,19.58 68.07,40.22 0,15.46 -8.01,25.52 -23.98,30.16 -16.02,4.64 -30.7,6.97 -44.09,6.97 -14.45,0 -27.34,-2.08 -38.69,-6.19 -11.35,-4.14 -19.6,-11.87 -24.74,-23.22 h -103.66 c 4.12,31.97 18.57,58.26 43.32,78.91 27.87,23.71 67.54,35.58 119.14,35.58 57.73,0 101.05,-9.82 129.95,-29.4 29.88,-20.64 44.84,-49.49 44.84,-86.62 v -140.78 c 0,-41.27 -7.49,-73.5 -22.43,-96.69 -14.95,-23.21 -32.75,-39.98 -53.37,-50.28"
         style="fill:#696c6d;fill-opacity:1;fill-rule:nonzero;stroke:none"
         id="path26" /><path
         d="m 5218.28,1224.88 h -109.83 l -143.86,411.5 h 114.48 l 81.98,-289.29 72.7,252.15 c 8.24,24.77 24.77,37.14 49.52,37.14 h 80.44 l -145.43,-411.5"
         style="fill:#696c6d;fill-opacity:1;fill-rule:nonzero;stroke:none"
         id="path28" /><path
         d="m 5464.73,1472.41 h 157.77 c -2.07,27.84 -9.26,48.45 -21.63,61.86 -13.43,14.43 -32.5,21.66 -57.26,21.66 -22.7,0 -41.27,-7.23 -55.68,-21.66 -14.45,-14.44 -22.19,-35.07 -23.2,-61.86 z m 185.63,-120.68 h 77.34 c -11.34,-43.32 -33,-76.34 -64.97,-99.01 -31.98,-23.73 -72.19,-35.58 -120.66,-35.58 -58.78,0 -104.7,19.07 -137.69,57.24 -33,37.12 -49.5,90.23 -49.5,159.34 0,65.99 15.99,117.57 47.95,154.7 33,38.15 78.91,57.24 137.7,57.24 61.88,0 109.83,-18.56 143.86,-55.7 33.01,-38.16 49.5,-91.27 49.5,-159.33 0,-4.14 0,-7.75 0,-10.84 0,-3.09 0,-5.18 0,-6.17 0,-5.18 -0.53,-8.78 -1.55,-10.83 h -267.61 c 1.01,-32 8.75,-55.7 23.2,-71.18 13.37,-16.51 33.49,-24.74 60.32,-24.74 17.53,0 32.5,3.59 44.88,10.82 3.09,1.02 5.92,2.83 8.51,5.42 2.56,2.56 5.41,5.42 8.51,8.5 0.99,3.1 4.86,7.22 11.58,12.39 6.7,5.14 16.25,7.73 28.63,7.73"
         style="fill:#696c6d;fill-opacity:1;fill-rule:nonzero;stroke:none"
         id="path30" /><path
         d="M 3433.23,1110.53 V 898.789 h -18.68 v 211.741 h 18.68"
         style="fill:#8c9799;fill-opacity:1;fill-rule:nonzero;stroke:none"
         id="path32" /><path
         d="M 3488.1,1051.81 V 898.789 h -18.69 v 153.021 z m 0,58.72 v -29.95 h -18.69 v 29.95 h 18.69"
         style="fill:#8c9799;fill-opacity:1;fill-rule:nonzero;stroke:none"
         id="path34" /><path
         d="m 3538.95,951.73 c 1.88,-7.808 4.84,-14.781 8.9,-20.91 4.05,-6.129 9.23,-11.121 15.57,-14.98 6.32,-3.852 13.93,-5.781 22.83,-5.781 9.88,0 18.24,1.929 25.06,5.781 6.82,3.859 12.35,8.851 16.61,14.98 4.25,6.129 7.31,13.102 9.19,20.91 1.87,7.801 2.82,15.668 2.82,23.579 0,7.902 -0.95,15.761 -2.82,23.57 -1.88,7.801 -4.94,14.781 -9.19,20.911 -4.26,6.12 -9.79,11.12 -16.61,14.97 -6.82,3.86 -15.18,5.78 -25.06,5.78 -8.9,0 -16.51,-1.92 -22.83,-5.78 -6.34,-3.85 -11.52,-8.85 -15.57,-14.97 -4.06,-6.13 -7.02,-13.11 -8.9,-20.911 -1.88,-7.809 -2.82,-15.668 -2.82,-23.57 0,-7.911 0.94,-15.778 2.82,-23.579 z m 100.98,-109.289 v 85.411 h -0.59 c -1.99,-5.532 -4.8,-10.383 -8.46,-14.532 -3.66,-4.148 -7.86,-7.609 -12.6,-10.379 -4.74,-2.769 -9.84,-4.839 -15.27,-6.23 -5.44,-1.379 -11.03,-2.07 -16.76,-2.07 -11.67,0 -21.8,2.129 -30.4,6.379 -8.59,4.25 -15.76,10.082 -21.49,17.492 -5.74,7.418 -9.99,16.008 -12.76,25.797 -2.77,9.781 -4.15,20.121 -4.15,31 0,10.863 1.38,21.203 4.15,30.981 2.77,9.79 7.02,18.39 12.76,25.8 5.73,7.41 12.9,13.29 21.49,17.65 8.6,4.34 18.73,6.52 30.4,6.52 5.53,0 11.12,-0.79 16.76,-2.37 5.63,-1.58 10.92,-3.86 15.86,-6.82 4.94,-2.97 9.34,-6.48 13.2,-10.52 3.85,-4.07 6.77,-8.66 8.75,-13.8 h 0.59 v 29.06 h 17.2 V 842.441 h -18.68"
         style="fill:#8c9799;fill-opacity:1;fill-rule:nonzero;stroke:none"
         id="path36" /><path
         d="m 3800.95,898.789 v 27.582 h -0.59 c -4.94,-10.281 -12.11,-18.133 -21.5,-23.57 -9.39,-5.442 -19.82,-8.16 -31.29,-8.16 -9.68,0 -17.94,1.339 -24.76,4.007 -6.82,2.661 -12.36,6.473 -16.6,11.411 -4.26,4.941 -7.37,10.98 -9.34,18.089 -1.99,7.122 -2.97,15.223 -2.97,24.313 v 99.349 h 18.68 v -99.638 c 0.39,-13.84 3.61,-24.32 9.64,-31.434 6.03,-7.117 16.46,-10.679 31.29,-10.679 8.1,0 15.02,1.73 20.75,5.191 5.74,3.449 10.48,8.051 14.24,13.789 3.75,5.731 6.52,12.313 8.3,19.723 1.78,7.41 2.67,14.968 2.67,22.687 v 80.361 h 18.68 V 898.789 h -17.2"
         style="fill:#8c9799;fill-opacity:1;fill-rule:nonzero;stroke:none"
         id="path38" /><path
         d="M 3872.42,1051.81 V 898.789 h -18.68 v 153.021 z m 0,58.72 v -29.95 h -18.68 v 29.95 h 18.68"
         style="fill:#8c9799;fill-opacity:1;fill-rule:nonzero;stroke:none"
         id="path40" /><path
         d="m 3923.28,951.73 c 1.87,-7.808 4.84,-14.781 8.89,-20.91 4.06,-6.129 9.24,-11.121 15.57,-14.98 6.33,-3.852 13.94,-5.781 22.84,-5.781 9.88,0 18.23,1.929 25.05,5.781 6.83,3.859 12.36,8.851 16.61,14.98 4.25,6.129 7.32,13.102 9.2,20.91 1.87,7.801 2.81,15.668 2.81,23.579 0,7.902 -0.94,15.761 -2.81,23.57 -1.88,7.801 -4.95,14.781 -9.2,20.911 -4.25,6.12 -9.78,11.12 -16.61,14.97 -6.82,3.86 -15.17,5.78 -25.05,5.78 -8.9,0 -16.51,-1.92 -22.84,-5.78 -6.33,-3.85 -11.51,-8.85 -15.57,-14.97 -4.05,-6.13 -7.02,-13.11 -8.89,-20.911 -1.88,-7.809 -2.82,-15.668 -2.82,-23.57 0,-7.911 0.94,-15.778 2.82,-23.579 z m 102.46,-52.941 v 29.063 h -0.6 c -1.98,-4.942 -4.89,-9.493 -8.74,-13.641 -3.86,-4.152 -8.26,-7.66 -13.2,-10.531 -4.95,-2.871 -10.23,-5.078 -15.87,-6.668 -5.63,-1.582 -11.22,-2.371 -16.75,-2.371 -11.67,0 -21.8,2.129 -30.4,6.379 -8.6,4.25 -15.77,10.082 -21.5,17.492 -5.74,7.418 -9.98,16.008 -12.75,25.797 -2.77,9.781 -4.15,20.121 -4.15,31 0,10.863 1.38,21.203 4.15,30.981 2.77,9.79 7.01,18.39 12.75,25.8 5.73,7.41 12.9,13.29 21.5,17.65 8.6,4.34 18.73,6.52 30.4,6.52 5.73,0 11.31,-0.69 16.75,-2.08 5.44,-1.38 10.53,-3.5 15.28,-6.37 4.74,-2.87 8.94,-6.37 12.6,-10.53 3.65,-4.15 6.47,-9 8.45,-14.53 h 0.59 v 87.78 h 18.68 V 898.789 h -17.19"
         style="fill:#8c9799;fill-opacity:1;fill-rule:nonzero;stroke:none"
         id="path42" /><path
         d="m 4178.16,1051.81 v -25.8 h 0.89 c 4.94,9.49 11.42,16.9 19.43,22.24 8,5.35 18.23,8.01 30.69,8.01 10.09,0 19.23,-2.47 27.43,-7.41 8.2,-4.95 13.69,-12.46 16.47,-22.54 4.54,10.08 11.26,17.59 20.15,22.54 8.91,4.94 18.39,7.41 28.48,7.41 33.81,0 50.71,-17.9 50.71,-53.68 V 898.789 h -18.69 v 102.901 c 0,12.66 -2.67,22.3 -8.01,28.92 -5.33,6.62 -14.72,9.93 -28.16,9.93 -8.12,0 -14.84,-1.53 -20.17,-4.59 -5.34,-3.07 -9.6,-7.17 -12.75,-12.3 -3.17,-5.15 -5.39,-11.03 -6.67,-17.65 -1.29,-6.629 -1.93,-13.5 -1.93,-20.621 v -86.59 h -18.69 v 103.791 c 0,5.15 -0.54,10.04 -1.63,14.69 -1.08,4.64 -2.87,8.69 -5.34,12.16 -2.47,3.45 -5.78,6.17 -9.93,8.15 -4.15,1.97 -9.19,2.96 -15.13,2.96 -7.91,0 -14.78,-1.44 -20.61,-4.3 -5.83,-2.87 -10.57,-6.81 -14.23,-11.86 -3.66,-5.04 -6.38,-10.97 -8.16,-17.8 -1.77,-6.81 -2.67,-14.271 -2.67,-22.381 v -85.41 h -18.68 v 153.021 h 17.2"
         style="fill:#8c9799;fill-opacity:1;fill-rule:nonzero;stroke:none"
         id="path44" /><path
         d="m 4449.21,1034.91 c -6.72,-3.75 -12.31,-8.71 -16.76,-14.83 -4.44,-6.13 -7.81,-13.09 -10.08,-20.908 -2.27,-7.813 -3.41,-15.762 -3.41,-23.863 0,-8.118 1.14,-16.067 3.41,-23.879 2.27,-7.809 5.64,-14.782 10.08,-20.91 4.45,-6.122 10.04,-11.071 16.76,-14.821 6.72,-3.758 14.53,-5.64 23.43,-5.64 8.89,0 16.71,1.882 23.42,5.64 6.72,3.75 12.31,8.699 16.76,14.821 4.45,6.128 7.81,13.101 10.08,20.91 2.28,7.812 3.41,15.761 3.41,23.879 0,8.101 -1.13,16.05 -3.41,23.863 -2.27,7.818 -5.63,14.778 -10.08,20.908 -4.45,6.12 -10.04,11.08 -16.76,14.83 -6.71,3.75 -14.53,5.63 -23.42,5.63 -8.9,0 -16.71,-1.88 -23.43,-5.63 z m 54.41,14.83 c 9,-4.36 16.57,-10.19 22.69,-17.5 6.13,-7.32 10.78,-15.86 13.94,-25.66 3.16,-9.779 4.75,-20.209 4.75,-31.271 0,-11.079 -1.59,-21.508 -4.75,-31.289 -3.16,-9.79 -7.81,-18.34 -13.94,-25.661 -6.12,-7.308 -13.69,-13.089 -22.69,-17.339 -8.99,-4.25 -19.32,-6.379 -30.98,-6.379 -11.67,0 -22,2.129 -30.99,6.379 -9,4.25 -16.56,10.031 -22.69,17.339 -6.13,7.321 -10.78,15.871 -13.93,25.661 -3.16,9.781 -4.75,20.21 -4.75,31.289 0,11.062 1.59,21.492 4.75,31.271 3.15,9.8 7.8,18.34 13.93,25.66 6.13,7.31 13.69,13.14 22.69,17.5 8.99,4.34 19.32,6.52 30.99,6.52 11.66,0 21.99,-2.18 30.98,-6.52"
         style="fill:#8c9799;fill-opacity:1;fill-rule:nonzero;stroke:none"
         id="path46" /><path
         d="m 4633.66,1051.81 v -15.71 h -31.13 V 932.891 c 0,-6.129 0.84,-10.922 2.52,-14.379 1.68,-3.461 5.88,-5.383 12.6,-5.782 5.34,0 10.68,0.301 16.01,0.891 v -15.723 c -2.76,0 -5.53,-0.089 -8.3,-0.289 -2.77,-0.199 -5.54,-0.3 -8.3,-0.3 -12.46,0 -21.16,2.421 -26.1,7.261 -4.94,4.852 -7.32,13.789 -7.11,26.84 v 104.69 h -26.69 v 15.71 h 26.69 v 45.97 h 18.68 v -45.97 h 31.13"
         style="fill:#8c9799;fill-opacity:1;fill-rule:nonzero;stroke:none"
         id="path48" /><path
         d="M 4679.64,1051.81 V 898.789 h -18.69 v 153.021 z m 0,58.72 v -29.95 h -18.69 v 29.95 h 18.69"
         style="fill:#8c9799;fill-opacity:1;fill-rule:nonzero;stroke:none"
         id="path50" /><path
         d="m 4756.73,1034.91 c -6.72,-3.75 -12.31,-8.71 -16.76,-14.83 -4.44,-6.13 -7.81,-13.09 -10.08,-20.908 -2.27,-7.813 -3.41,-15.762 -3.41,-23.863 0,-8.118 1.14,-16.067 3.41,-23.879 2.27,-7.809 5.64,-14.782 10.08,-20.91 4.45,-6.122 10.04,-11.071 16.76,-14.821 6.72,-3.758 14.53,-5.64 23.43,-5.64 8.89,0 16.71,1.882 23.42,5.64 6.72,3.75 12.31,8.699 16.76,14.821 4.45,6.128 7.8,13.101 10.08,20.91 2.28,7.812 3.41,15.761 3.41,23.879 0,8.101 -1.13,16.05 -3.41,23.863 -2.28,7.818 -5.63,14.778 -10.08,20.908 -4.45,6.12 -10.04,11.08 -16.76,14.83 -6.71,3.75 -14.53,5.63 -23.42,5.63 -8.9,0 -16.71,-1.88 -23.43,-5.63 z m 54.41,14.83 c 9,-4.36 16.57,-10.19 22.69,-17.5 6.13,-7.32 10.78,-15.86 13.94,-25.66 3.16,-9.779 4.75,-20.209 4.75,-31.271 0,-11.079 -1.59,-21.508 -4.75,-31.289 -3.16,-9.79 -7.81,-18.34 -13.94,-25.661 -6.12,-7.308 -13.69,-13.089 -22.69,-17.339 -8.99,-4.25 -19.32,-6.379 -30.98,-6.379 -11.67,0 -22,2.129 -30.99,6.379 -9,4.25 -16.56,10.031 -22.69,17.339 -6.13,7.321 -10.78,15.871 -13.94,25.661 -3.16,9.781 -4.75,20.21 -4.75,31.289 0,11.062 1.59,21.492 4.75,31.271 3.16,9.8 7.81,18.34 13.94,25.66 6.13,7.31 13.69,13.14 22.69,17.5 8.99,4.34 19.32,6.52 30.99,6.52 11.66,0 21.99,-2.18 30.98,-6.52"
         style="fill:#8c9799;fill-opacity:1;fill-rule:nonzero;stroke:none"
         id="path52" /><path
         d="m 4898.78,1051.81 v -26.39 h 0.6 c 3.55,9.29 9.88,16.75 18.97,22.39 9.09,5.63 19.07,8.45 29.95,8.45 10.67,0 19.62,-1.38 26.84,-4.15 7.21,-2.77 12.99,-6.67 17.35,-11.72 4.35,-5.04 7.41,-11.22 9.19,-18.53 1.78,-7.32 2.67,-15.52 2.67,-24.61 v -98.461 h -18.69 v 95.492 c 0,6.519 -0.58,12.609 -1.77,18.239 -1.18,5.64 -3.26,10.53 -6.23,14.68 -2.96,4.15 -6.97,7.41 -12.01,9.79 -5.04,2.37 -11.32,3.55 -18.83,3.55 -7.51,0 -14.19,-1.33 -20.02,-3.99 -5.83,-2.68 -10.77,-6.34 -14.83,-10.98 -4.05,-4.65 -7.21,-10.19 -9.49,-16.61 -2.27,-6.43 -3.51,-13.39 -3.7,-20.909 v -89.262 h -18.68 v 153.021 h 18.68"
         style="fill:#8c9799;fill-opacity:1;fill-rule:nonzero;stroke:none"
         id="path54" /><g
         id="g56"><g
           id="g58"
           clip-path="url(#clipPath62)"><path
             d="m 4108.42,2954.39 c -66.43,-207.23 -36.58,-442.21 101.19,-631.69 163.63,-225.09 414.79,-321.48 687.56,-281.93 154.19,22.38 249.09,96.34 249.12,96.34 183.96,146.34 221.79,318.69 164.48,405.78 -52.56,79.95 -131.38,135.2 -350.22,79.72 -333.07,-86.3 -760.34,97.31 -852.13,331.78"
             style="fill:url(#linearGradient72);fill-opacity:1;fill-rule:nonzero;stroke:none"
             id="path74" /></g></g><g
         id="g76"><g
           id="g78"
           clip-path="url(#clipPath82)"><path
             d="m 4365.55,3309.64 c 208.1,151.32 471.09,172.47 691.89,78.87 135.76,420.93 -235.85,592.28 -379.61,527.28 23.37,144.19 -53.31,307.95 -265.72,357.02 -261.26,60.35 -442.05,-117.43 -442.05,-117.43 0,0 48.41,139.59 -93.4,205.46 -114.37,53.14 -245.02,-41.84 -245.02,-41.84 -594.34,-432.15 -725.8,-1264.27 -293.66,-1858.59 325.53,-447.69 878,-632.73 1384.83,-512.05 137.13,32.64 307.91,100.85 411.39,179.76 -308.91,-177.41 -710.33,-100.1 -924.59,194.58 -229.48,315.58 -159.66,757.47 155.94,986.94"
             style="fill:url(#linearGradient92);fill-opacity:1;fill-rule:nonzero;stroke:none"
             id="path94" /></g></g></g></g></svg>
